<?xml version="1.0" encoding="utf-8"?>
<!-- Generator: Adobe Illustrator 27.5.0, SVG Export Plug-In . SVG Version: 6.00 Build 0)  -->
<svg version="1.1" id="Layer_1" xmlns="http://www.w3.org/2000/svg" xmlns:xlink="http://www.w3.org/1999/xlink" x="0px" y="0px"
	 viewBox="0 0 1300 1300" style="enable-background:new 0 0 1300 1300;" xml:space="preserve">
<g id="XMLID_3_">
	<g id="XMLID_1_">
		<polygon id="XMLID_8_" style="fill:#1A1A1A;" points="755.496,576.478 755.496,576.476 755.487,576.462 		"/>
		<g id="XMLID_2_">
			
				<linearGradient id="XMLID_00000121270277397829814560000011879031393283271863_" gradientUnits="userSpaceOnUse" x1="743" y1="656.8806" x2="916.1497" y2="656.8806">
				<stop  offset="0" style="stop-color:#78A99A"/>
				<stop  offset="1" style="stop-color:#A0B8B0"/>
			</linearGradient>
			<polygon id="XMLID_11_" style="fill:url(#XMLID_00000121270277397829814560000011879031393283271863_);" points="916.15,513.428 
				743,613.253 743,800.333 916,700.451 916,513.612 916.141,513.628 			"/>
			
				<linearGradient id="XMLID_00000001661112628529810740000015124249696792626091_" gradientUnits="userSpaceOnUse" x1="569" y1="657.0451" x2="743.076" y2="657.0451">
				<stop  offset="0" style="stop-color:#006655"/>
				<stop  offset="1" style="stop-color:#004B47"/>
			</linearGradient>
			<polygon id="XMLID_12_" style="fill:url(#XMLID_00000001661112628529810740000015124249696792626091_);" points="742.768,613.53 
				569.263,513.428 569,513.669 569,700.428 742.587,800.505 742.801,800.662 742.954,800.61 743.076,800.662 742.935,800.505 
				743,800.333 743,613.253 			"/>
		</g>
		<g id="XMLID_4_">
			
				<linearGradient id="XMLID_00000040555944051232582910000006714662566613909387_" gradientUnits="userSpaceOnUse" x1="556" y1="433.0451" x2="730" y2="433.0451">
				<stop  offset="0" style="stop-color:#00A76D"/>
				<stop  offset="1" style="stop-color:#00A886"/>
			</linearGradient>
			<polygon id="XMLID_13_" style="fill:url(#XMLID_00000040555944051232582910000006714662566613909387_);" points="
				556.917,289.585 556.955,289.428 556.928,289.48 556.87,289.428 556.538,289.585 556,289.762 556,476.847 556.745,476.561 
				729.993,576.662 730,576.421 730,389.663 			"/>
			<polygon id="XMLID_14_" style="fill:#1A1A1A;" points="383.496,576.478 383.496,576.476 383.487,576.462 			"/>
			
				<linearGradient id="XMLID_00000176739686284625848630000001130769812587282618_" gradientUnits="userSpaceOnUse" x1="383" y1="433.2121" x2="556" y2="433.2121">
				<stop  offset="0" style="stop-color:#A0B8B0"/>
				<stop  offset="1" style="stop-color:#78A99A"/>
			</linearGradient>
			<polygon id="XMLID_15_" style="fill:url(#XMLID_00000176739686284625848630000001130769812587282618_);" points="383,389.639 
				383,576.476 383.116,576.662 556,476.847 556,289.762 			"/>
		</g>
		
			<linearGradient id="XMLID_00000143614657719899402060000002334448536484147864_" gradientUnits="userSpaceOnUse" x1="383" y1="653.4164" x2="544.1497" y2="653.4164">
			<stop  offset="0" style="stop-color:#00A886"/>
			<stop  offset="1" style="stop-color:#00A76D"/>
		</linearGradient>
		<polygon id="XMLID_6_" style="fill:url(#XMLID_00000143614657719899402060000002334448536484147864_);" points="544.15,513.428 
			383,606.325 383,793.405 544,700.451 544,513.612 544.141,513.628 		"/>
		
			<linearGradient id="XMLID_00000029764488436316729950000003554737972018343334_" gradientUnits="userSpaceOnUse" x1="755" y1="436.676" x2="916" y2="436.676">
			<stop  offset="0" style="stop-color:#004B47"/>
			<stop  offset="1" style="stop-color:#006655"/>
		</linearGradient>
		<polygon id="XMLID_7_" style="fill:url(#XMLID_00000029764488436316729950000003554737972018343334_);" points="916,296.69 
			755,389.639 755,576.476 755.116,576.662 916,483.776 		"/>
	</g>
	<g id="XMLID_43_">
		<path id="XMLID_44_" style="fill:#1A1A1A;" d="M329.176,855.231h15.058v53.737h26.376v12.598h-41.435V855.231z"/>
		<path id="XMLID_46_" style="fill:#1A1A1A;" d="M456.131,887.71c0,21.751-13.188,34.939-32.577,34.939
			c-19.684,0-31.199-14.861-31.199-33.758c0-19.881,12.696-34.742,32.281-34.742C445.01,854.149,456.131,869.404,456.131,887.71z
			 M408.201,888.596c0,12.991,6.102,22.144,16.141,22.144c10.137,0,15.944-9.646,15.944-22.538c0-11.908-5.708-22.145-16.043-22.145
			C414.106,866.057,408.201,875.703,408.201,888.596z"/>
		<path id="XMLID_49_" style="fill:#1A1A1A;" d="M541.061,918.515c-4.626,1.574-13.385,3.739-22.145,3.739
			c-12.105,0-20.865-3.051-26.967-8.956c-6.102-5.708-9.448-14.369-9.35-24.112c0.098-22.046,16.141-34.643,37.891-34.643
			c8.562,0,15.157,1.673,18.404,3.248l-3.149,12.007c-3.641-1.574-8.168-2.854-15.452-2.854c-12.499,0-21.947,7.087-21.947,21.456
			c0,13.68,8.563,21.75,20.865,21.75c3.445,0,6.2-0.394,7.381-0.983v-13.878h-10.235v-11.712h24.703V918.515z"/>
		<path id="XMLID_51_" style="fill:#1A1A1A;" d="M633.175,887.71c0,21.751-13.188,34.939-32.577,34.939
			c-19.684,0-31.198-14.861-31.198-33.758c0-19.881,12.696-34.742,32.281-34.742C622.053,854.149,633.175,869.404,633.175,887.71z
			 M585.245,888.596c0,12.991,6.102,22.144,16.141,22.144c10.137,0,15.943-9.646,15.943-22.538c0-11.908-5.708-22.145-16.042-22.145
			C591.15,866.057,585.245,875.703,585.245,888.596z"/>
		<path id="XMLID_54_" style="fill:#1A1A1A;" d="M711.213,867.829H693.4v-12.598h50.98v12.598h-18.108v53.737h-15.059V867.829z"/>
		<path id="XMLID_56_" style="fill:#1A1A1A;" d="M811.496,893.516h-24.408v15.747h27.263v12.303h-42.32v-66.335h40.942v12.303
			h-25.885v13.778h24.408V893.516z"/>
		<path id="XMLID_58_" style="fill:#1A1A1A;" d="M879.203,921.566l-6.004-12.007c-2.46-4.626-4.035-8.07-5.905-11.909h-0.196
			c-1.378,3.839-3.051,7.283-5.118,11.909l-5.512,12.007h-17.125l19.192-33.561l-18.503-32.774h17.224l5.807,12.107
			c1.968,4.035,3.444,7.282,5.02,11.022h0.196c1.575-4.232,2.854-7.185,4.527-11.022l5.61-12.107h17.125l-18.7,32.38l19.684,33.955
			H879.203z"/>
		<path id="XMLID_60_" style="fill:#1A1A1A;" d="M937.657,867.829h-17.813v-12.598h50.98v12.598h-18.108v53.737h-15.059V867.829z"/>
	</g>
	<g id="XMLID_5_">
		<path id="XMLID_10_" style="fill:#00A886;" d="M336.148,951.785v9.869h9.727v2.697h-9.727v22.152c0,4.33,1.349,7.1,4.97,7.1
			c1.775,0,3.053-0.284,3.905-0.568l0.426,2.627c-1.136,0.427-2.698,0.781-4.757,0.781c-2.485,0-4.544-0.781-5.822-2.414
			c-1.562-1.774-2.13-4.615-2.13-8.094v-21.584h-5.751v-2.697h5.751v-8.805L336.148,951.785z"/>
		<path id="XMLID_17_" style="fill:#00A886;" d="M400.402,995.733l-0.497-4.899h-0.213c-1.633,2.627-5.396,5.681-10.863,5.681
			c-6.816,0-10.011-4.828-10.011-9.372c0-7.881,6.958-12.638,20.803-12.496v-0.852c0-3.408-0.639-10.153-8.733-10.082
			c-2.982,0-6.106,0.781-8.52,2.556l-1.065-2.484c3.053-2.06,6.887-2.911,9.94-2.911c9.869,0,11.715,7.384,11.715,13.489v13.277
			c0,2.698,0.142,5.467,0.497,8.094H400.402z M399.621,977.486c-7.455-0.213-17.253,0.923-17.253,9.088
			c0,4.899,3.266,7.101,6.816,7.101c5.68,0,8.875-3.479,10.082-6.816c0.213-0.71,0.355-1.42,0.355-2.059V977.486z"/>
		<path id="XMLID_20_" style="fill:#00A886;" d="M469.84,961.654c-0.142,2.556-0.284,5.254-0.284,8.804v20.306
			c0,8.732-1.775,13.063-4.615,15.762c-3.124,2.981-7.739,4.047-11.573,4.047c-3.905,0-8.236-0.994-10.792-2.911l1.207-2.768
			c2.343,1.562,5.68,2.84,10.082,2.84c7.171,0,12.354-3.692,12.354-13.774v-4.827h-0.142c-1.775,3.479-5.751,6.603-11.857,6.603
			c-8.591,0-14.625-7.455-14.625-16.756c0-11.856,7.81-18.104,15.335-18.104c6.745,0,10.082,3.691,11.502,6.531h0.142l0.142-5.75
			H469.84z M466.218,974.718c0-1.207-0.142-2.272-0.426-3.266c-1.42-4.118-5.041-7.81-10.579-7.81
			c-7.242,0-12.212,5.964-12.212,14.981c0,7.667,4.047,14.271,12.07,14.271c4.544,0,8.804-2.77,10.508-7.668
			c0.426-1.136,0.639-2.414,0.639-3.621V974.718z"/>
		<path id="XMLID_23_" style="fill:#00A886;" d="M509.457,945.324h3.337v50.409h-3.337V945.324z"/>
		<path id="XMLID_25_" style="fill:#00A886;" d="M557.31,951.927c0,1.563-1.065,2.911-2.84,2.911c-1.562,0-2.627-1.349-2.627-2.911
			c0-1.562,1.207-2.981,2.769-2.981C556.245,948.945,557.31,950.294,557.31,951.927z M552.908,995.733v-34.079h3.337v34.079H552.908
			z"/>
		<path id="XMLID_28_" style="fill:#00A886;" d="M596.148,969.818c0-3.124-0.142-5.467-0.284-8.164h3.124l0.284,6.177h0.142
			c1.847-3.834,6.107-6.958,11.715-6.958c3.267,0,11.857,1.633,11.857,14.412v20.448h-3.337v-20.164
			c0-6.177-2.414-11.785-9.443-11.785c-4.828,0-8.875,3.407-10.224,7.81c-0.284,0.852-0.497,1.988-0.497,3.053v21.087h-3.337
			V969.818z"/>
		<path id="XMLID_30_" style="fill:#00A886;" d="M663.099,978.339c0,10.934,5.964,15.193,12.993,15.193
			c4.97,0,7.525-0.994,9.442-1.917l0.853,2.698c-1.278,0.71-4.758,2.13-10.722,2.13c-9.798,0-15.903-7.1-15.903-17.11
			c0-11.36,6.532-18.46,15.336-18.46c11.146,0,13.276,10.508,13.276,15.406c0,0.923,0,1.491-0.142,2.06H663.099z M684.825,975.64
			c0.071-4.757-1.917-11.999-10.153-11.999c-7.525,0-10.791,6.745-11.359,11.999H684.825z"/>
		<path id="XMLID_33_" style="fill:#00A886;" d="M769.384,945.324h3.337v22.436h0.142c0.994-1.917,2.627-3.763,4.687-4.97
			c1.917-1.207,4.26-1.917,6.887-1.917c3.195,0,11.786,1.633,11.786,14.271v20.59h-3.337v-20.164c0-6.177-2.414-11.785-9.372-11.785
			c-4.828,0-8.875,3.479-10.295,7.738c-0.356,0.994-0.497,1.988-0.497,3.337v20.874h-3.337V945.324z"/>
		<path id="XMLID_35_" style="fill:#00A886;" d="M836.338,978.339c0,10.934,5.964,15.193,12.993,15.193
			c4.97,0,7.525-0.994,9.442-1.917l0.852,2.698c-1.278,0.71-4.758,2.13-10.722,2.13c-9.798,0-15.903-7.1-15.903-17.11
			c0-11.36,6.532-18.46,15.336-18.46c11.146,0,13.276,10.508,13.276,15.406c0,0.923,0,1.491-0.142,2.06H836.338z M858.063,975.64
			c0.071-4.757-1.917-11.999-10.153-11.999c-7.525,0-10.791,6.745-11.359,11.999H858.063z"/>
		<path id="XMLID_38_" style="fill:#00A886;" d="M898.675,971.878c0-3.408-0.142-6.958-0.284-10.224h3.124l0.142,6.887h0.143
			c1.491-4.26,5.041-7.668,9.727-7.668c0.426,0,0.923,0.07,1.35,0.142v3.267c-0.497-0.143-0.994-0.143-1.634-0.143
			c-4.686,0-8.023,4.047-8.945,9.514c-0.143,0.994-0.284,2.13-0.284,3.267v18.815h-3.337V971.878z"/>
		<path id="XMLID_40_" style="fill:#00A886;" d="M947.736,978.339c0,10.934,5.964,15.193,12.993,15.193
			c4.97,0,7.525-0.994,9.442-1.917l0.853,2.698c-1.278,0.71-4.758,2.13-10.722,2.13c-9.798,0-15.903-7.1-15.903-17.11
			c0-11.36,6.532-18.46,15.336-18.46c11.147,0,13.276,10.508,13.276,15.406c0,0.923,0,1.491-0.142,2.06H947.736z M969.462,975.64
			c0.071-4.757-1.917-11.999-10.153-11.999c-7.525,0-10.791,6.745-11.359,11.999H969.462z"/>
	</g>
</g>
</svg>
