<?xml version="1.0" encoding="utf-8"?>
<!-- Generator: Adobe Illustrator 27.5.0, SVG Export Plug-In . SVG Version: 6.00 Build 0)  -->
<svg version="1.1" id="Layer_1" xmlns="http://www.w3.org/2000/svg" xmlns:xlink="http://www.w3.org/1999/xlink" x="0px" y="0px"
	 viewBox="0 0 4000 4000" style="enable-background:new 0 0 4000 4000;" xml:space="preserve">
<rect x="-0.341" y="1.273" style="fill-rule:evenodd;clip-rule:evenodd;fill:transparent" width="4000.341" height="4000.341"/>
<g>
	<defs>
		<polygon id="SVGID_85_" points="1485.815,859.544 1592.843,752.515 2134.061,1293.734 2088.828,1462.556 		"/>
	</defs>
	<clipPath id="SVGID_00000102546530158975715680000018212917550304071601_">
		<use xlink:href="#SVGID_85_"  style="overflow:visible;"/>
	</clipPath>
	<linearGradient id="SVGID_1_" gradientUnits="userSpaceOnUse" x1="2066.3713" y1="1459.9835" x2="1578.2458" y2="789.0923">
		<stop  offset="0" style="stop-color:#6A00B8"/>
		<stop  offset="1" style="stop-color:#DB17B9"/>
	</linearGradient>

		<rect x="1485.815" y="752.515" style="clip-path:url(#SVGID_00000102546530158975715680000018212917550304071601_);fill:url(#SVGID_1_);" width="648.246" height="710.041"/>
</g>
<defs>
	<filter id="Adobe_OpacityMaskFilter" filterUnits="userSpaceOnUse" x="1485.815" y="752.515" width="271.484" height="322.389">
		<feColorMatrix  type="matrix" values="1 0 0 0 0  0 1 0 0 0  0 0 1 0 0  0 0 0 1 0"/>
	</filter>
</defs>
<mask maskUnits="userSpaceOnUse" x="1485.815" y="752.515" width="271.484" height="322.389" id="SVGID_00000127039179304736719650000012710354927954379943_">
	<g style="filter:url(#Adobe_OpacityMaskFilter);">

			<linearGradient id="SVGID_00000003827740526217922150000018333146606202179729_" gradientUnits="userSpaceOnUse" x1="96.8647" y1="2018.4823" x2="724.9232" y2="2565.5835" gradientTransform="matrix(1 0 0 1 1207.153 -1381.3821)">
			<stop  offset="0" style="stop-color:#FFFFFF"/>
			<stop  offset="1" style="stop-color:#000000"/>
		</linearGradient>

			<rect x="1485.815" y="752.515" style="fill:url(#SVGID_00000003827740526217922150000018333146606202179729_);" width="271.486" height="322.389"/>
	</g>
</mask>
<path style="mask:url(#SVGID_00000127039179304736719650000012710354927954379943_);fill-rule:evenodd;clip-rule:evenodd;fill:#FF00D5;" d="
	M1485.815,859.544l107.028-107.029l164.456,164.459c-189.26-35.24-56.126,157.93-56.126,157.93L1485.815,859.544z"/>
<defs>

		<filter id="Adobe_OpacityMaskFilter_00000121260483870865225330000007579397856556849834_" filterUnits="userSpaceOnUse" x="1539.33" y="752.515" width="594.731" height="625.629">
		<feColorMatrix  type="matrix" values="1 0 0 0 0  0 1 0 0 0  0 0 1 0 0  0 0 0 1 0"/>
	</filter>
</defs>
<mask maskUnits="userSpaceOnUse" x="1539.33" y="752.515" width="594.731" height="625.629" id="SVGID_00000129192229809082935010000002817892625088853942_">
	<g style="filter:url(#Adobe_OpacityMaskFilter_00000121260483870865225330000007579397856556849834_);">

			<linearGradient id="SVGID_00000005979488633099420970000005432639977174410624_" gradientUnits="userSpaceOnUse" x1="1303.6483" y1="3144.1177" x2="303.8116" y2="2066.0239" gradientTransform="matrix(1 0 0 1 1213.5742 -1344.9963)">
			<stop  offset="0" style="stop-color:#FFFFFF"/>
			<stop  offset="1" style="stop-color:#000000"/>
		</linearGradient>

			<rect x="1539.33" y="752.515" style="fill:url(#SVGID_00000005979488633099420970000005432639977174410624_);" width="594.731" height="625.629"/>
	</g>
</mask>
<polygon style="mask:url(#SVGID_00000129192229809082935010000002817892625088853942_);fill-rule:evenodd;clip-rule:evenodd;fill:#6A00B8;" points="
	1539.33,806.029 1592.843,752.515 2134.061,1293.734 2111.443,1378.144 "/>
<g>
	<defs>
		<polygon id="SVGID_92_" points="2087.511,882.651 2233.714,921.827 2088.826,1462.556 1965.24,1338.972 		"/>
	</defs>
	<clipPath id="SVGID_00000085224606928602723010000016737585338577747613_">
		<use xlink:href="#SVGID_92_"  style="overflow:visible;"/>
	</clipPath>

		<linearGradient id="SVGID_00000127044399931053490330000001190890146891050907_" gradientUnits="userSpaceOnUse" x1="2137.533" y1="1497.1669" x2="2048.7751" y2="740.183">
		<stop  offset="0" style="stop-color:#0049E7"/>
		<stop  offset="1" style="stop-color:#16EA9E"/>
	</linearGradient>

		<rect x="1965.24" y="882.651" style="clip-path:url(#SVGID_00000085224606928602723010000016737585338577747613_);fill:url(#SVGID_00000127044399931053490330000001190890146891050907_);" width="268.474" height="579.905"/>
</g>
<defs>

		<filter id="Adobe_OpacityMaskFilter_00000079465683070264787660000014863124733479778439_" filterUnits="userSpaceOnUse" x="2026.377" y="882.651" width="207.337" height="267.335">
		<feColorMatrix  type="matrix" values="1 0 0 0 0  0 1 0 0 0  0 0 1 0 0  0 0 0 1 0"/>
	</filter>
</defs>
<mask maskUnits="userSpaceOnUse" x="2026.377" y="882.651" width="207.337" height="267.335" id="SVGID_00000062909007656828741680000005824346183345386934_">
	<g style="filter:url(#Adobe_OpacityMaskFilter_00000079465683070264787660000014863124733479778439_);">

			<linearGradient id="SVGID_00000027596010546596679430000006228933062302466710_" gradientUnits="userSpaceOnUse" x1="996.9132" y1="1842.6161" x2="781.479" y2="2689.6882" gradientTransform="matrix(1 0 0 1 1272.0149 -1372.373)">
			<stop  offset="0" style="stop-color:#FFFFFF"/>
			<stop  offset="1" style="stop-color:#000000"/>
		</linearGradient>

			<rect x="2026.377" y="882.651" style="fill:url(#SVGID_00000027596010546596679430000006228933062302466710_);" width="207.337" height="267.335"/>
	</g>
</mask>
<path style="mask:url(#SVGID_00000062909007656828741680000005824346183345386934_);fill-rule:evenodd;clip-rule:evenodd;fill:#16EA9E;" d="
	M2087.511,882.651l146.203,39.176l-61.134,228.157l-0.003,0.002c-27.191-188.572-146.2-39.173-146.2-39.173v-0.003L2087.511,882.651
	z"/>
<defs>

		<filter id="Adobe_OpacityMaskFilter_00000041284993562464593000000009639624332857561227_" filterUnits="userSpaceOnUse" x="2027.035" y="902.241" width="206.68" height="560.315">
		<feColorMatrix  type="matrix" values="1 0 0 0 0  0 1 0 0 0  0 0 1 0 0  0 0 0 1 0"/>
	</filter>
</defs>
<mask maskUnits="userSpaceOnUse" x="2027.035" y="902.241" width="206.68" height="560.315" id="SVGID_00000034784813405960226320000000304014217762319545_">
	<g style="filter:url(#Adobe_OpacityMaskFilter_00000041284993562464593000000009639624332857561227_);">

			<linearGradient id="SVGID_00000128461445897488910100000012691641109399044776_" gradientUnits="userSpaceOnUse" x1="644.3029" y1="3216.032" x2="988.833" y2="2090.937" gradientTransform="matrix(1 0 0 1 1272.0938 -1334.8678)">
			<stop  offset="0" style="stop-color:#FFFFFF"/>
			<stop  offset="1" style="stop-color:#000000"/>
		</linearGradient>

			<rect x="2027.035" y="902.241" style="fill:url(#SVGID_00000128461445897488910100000012691641109399044776_);" width="206.681" height="560.315"/>
	</g>
</mask>
<polygon style="mask:url(#SVGID_00000034784813405960226320000000304014217762319545_);fill-rule:evenodd;clip-rule:evenodd;fill:#0049E7;" points="
	2160.614,902.241 2233.714,921.827 2088.826,1462.556 2027.035,1400.765 "/>
<g>
	<defs>
		<polygon id="SVGID_99_" points="2468.67,833.464 2614.875,872.639 2416.775,1611.957 2247.952,1657.194 		"/>
	</defs>
	<clipPath id="SVGID_00000036930120460228578660000010903310723407294883_">
		<use xlink:href="#SVGID_99_"  style="overflow:visible;"/>
	</clipPath>

		<linearGradient id="SVGID_00000088127283197382262440000001245389081530535859_" gradientUnits="userSpaceOnUse" x1="2254.5298" y1="1643.3728" x2="2591.4741" y2="885.1415">
		<stop  offset="0" style="stop-color:#6A00B8"/>
		<stop  offset="1" style="stop-color:#DB17B9"/>
	</linearGradient>

		<rect x="2247.952" y="833.464" style="clip-path:url(#SVGID_00000036930120460228578660000010903310723407294883_);fill:url(#SVGID_00000088127283197382262440000001245389081530535859_);" width="366.923" height="823.731"/>
</g>
<defs>

		<filter id="Adobe_OpacityMaskFilter_00000087380934274964958060000000838079572452170911_" filterUnits="userSpaceOnUse" x="2389.843" y="833.464" width="225.031" height="294.188">
		<feColorMatrix  type="matrix" values="1 0 0 0 0  0 1 0 0 0  0 0 1 0 0  0 0 0 1 0"/>
	</filter>
</defs>
<mask maskUnits="userSpaceOnUse" x="2389.843" y="833.464" width="225.031" height="294.188" id="SVGID_00000114773302133157635420000015573942873562634144_">
	<g style="filter:url(#Adobe_OpacityMaskFilter_00000087380934274964958060000000838079572452170911_);">

			<linearGradient id="SVGID_00000124147211958772939010000016617005311839596949_" gradientUnits="userSpaceOnUse" x1="1267.5367" y1="1942.311" x2="1107.7728" y2="2759.4651" gradientTransform="matrix(1 0 0 1 1315.6271 -1375.0529)">
			<stop  offset="0" style="stop-color:#FFFFFF"/>
			<stop  offset="1" style="stop-color:#000000"/>
		</linearGradient>

			<rect x="2389.843" y="833.464" style="fill:url(#SVGID_00000124147211958772939010000016617005311839596949_);" width="225.031" height="294.188"/>
	</g>
</mask>
<path style="mask:url(#SVGID_00000114773302133157635420000015573942873562634144_);fill-rule:evenodd;clip-rule:evenodd;fill:#FF00D5;" d="
	M2468.67,833.464l146.205,39.176l-60.197,224.653c-64.111-181.522-164.834,30.359-164.834,30.359L2468.67,833.464z"/>
<defs>

		<filter id="Adobe_OpacityMaskFilter_00000080894381516141592100000011341570054133583755_" filterUnits="userSpaceOnUse" x="2332.364" y="853.052" width="282.511" height="781.524">
		<feColorMatrix  type="matrix" values="1 0 0 0 0  0 1 0 0 0  0 0 1 0 0  0 0 0 1 0"/>
	</filter>
</defs>
<mask maskUnits="userSpaceOnUse" x="2332.364" y="853.052" width="282.511" height="781.524" id="SVGID_00000180352170558906347490000001024520880187788223_">
	<g style="filter:url(#Adobe_OpacityMaskFilter_00000080894381516141592100000011341570054133583755_);">

			<linearGradient id="SVGID_00000024700417985067187660000004827514159260916369_" gradientUnits="userSpaceOnUse" x1="869.9814" y1="3513.136" x2="1303.7677" y2="2108.2668" gradientTransform="matrix(1 0 0 1 1308.7301 -1314.2271)">
			<stop  offset="0" style="stop-color:#FFFFFF"/>
			<stop  offset="1" style="stop-color:#000000"/>
		</linearGradient>

			<rect x="2332.364" y="853.052" style="fill:url(#SVGID_00000024700417985067187660000004827514159260916369_);" width="282.511" height="781.524"/>
	</g>
</mask>
<polygon style="mask:url(#SVGID_00000180352170558906347490000001024520880187788223_);fill-rule:evenodd;clip-rule:evenodd;fill:#6A00B8;" points="
	2541.773,853.052 2614.875,872.639 2416.775,1611.957 2332.364,1634.577 "/>
<g>
	<defs>
		<polygon id="SVGID_106_" points="2749.508,1366.104 2788.683,1512.306 2247.952,1657.192 2293.188,1488.375 		"/>
	</defs>
	<clipPath id="SVGID_00000100375051437182484170000007247210549138776710_">
		<use xlink:href="#SVGID_106_"  style="overflow:visible;"/>
	</clipPath>

		<linearGradient id="SVGID_00000042000495702003339930000008821770042312624805_" gradientUnits="userSpaceOnUse" x1="2242.5713" y1="1717.0947" x2="2853.8721" y2="1261.641">
		<stop  offset="0" style="stop-color:#0049E7"/>
		<stop  offset="1" style="stop-color:#16EA9E"/>
	</linearGradient>

		<rect x="2247.952" y="1366.104" style="clip-path:url(#SVGID_00000100375051437182484170000007247210549138776710_);fill:url(#SVGID_00000042000495702003339930000008821770042312624805_);" width="540.731" height="291.088"/>
</g>
<defs>

		<filter id="Adobe_OpacityMaskFilter_00000067235062260324976150000009420716210129097637_" filterUnits="userSpaceOnUse" x="2521.349" y="1366.104" width="267.335" height="207.337">
		<feColorMatrix  type="matrix" values="1 0 0 0 0  0 1 0 0 0  0 0 1 0 0  0 0 0 1 0"/>
	</filter>
</defs>
<mask maskUnits="userSpaceOnUse" x="2521.349" y="1366.104" width="267.335" height="207.337" id="SVGID_00000133528240935663850720000015201511883503904165_">
	<g style="filter:url(#Adobe_OpacityMaskFilter_00000067235062260324976150000009420716210129097637_);">

			<linearGradient id="SVGID_00000082368190436304484390000017691183741149047224_" gradientUnits="userSpaceOnUse" x1="1865.9069" y1="2638.5417" x2="1024.6671" y2="2875.5627" gradientTransform="matrix(1 0 0 1 1331.4064 -1321.5627)">
			<stop  offset="0" style="stop-color:#FFFFFF"/>
			<stop  offset="1" style="stop-color:#000000"/>
		</linearGradient>

			<rect x="2521.349" y="1366.104" style="fill:url(#SVGID_00000082368190436304484390000017691183741149047224_);" width="267.335" height="207.337"/>
	</g>
</mask>
<path style="mask:url(#SVGID_00000133528240935663850720000015201511883503904165_);fill-rule:evenodd;clip-rule:evenodd;fill:#16EA9E;" d="
	M2749.508,1366.104l39.176,146.202l-228.159,61.135h-0.002c149.713-117.837-39.174-146.201-39.174-146.201v-0.002L2749.508,1366.104
	z"/>
<defs>

		<filter id="Adobe_OpacityMaskFilter_00000151513883608570152700000012198242336086639754_" filterUnits="userSpaceOnUse" x="2247.952" y="1439.206" width="540.731" height="217.986">
		<feColorMatrix  type="matrix" values="1 0 0 0 0  0 1 0 0 0  0 0 1 0 0  0 0 0 1 0"/>
	</filter>
</defs>
<mask maskUnits="userSpaceOnUse" x="2247.952" y="1439.206" width="540.731" height="217.986" id="SVGID_00000036245817323658651950000001908880404666666424_">
	<g style="filter:url(#Adobe_OpacityMaskFilter_00000151513883608570152700000012198242336086639754_);">

			<linearGradient id="SVGID_00000047040415677675747390000008837321029047862937_" gradientUnits="userSpaceOnUse" x1="499.8755" y1="3025.5078" x2="1646.5576" y2="2761.4014" gradientTransform="matrix(1 0 0 1 1298.6016 -1311.5134)">
			<stop  offset="0" style="stop-color:#FFFFFF"/>
			<stop  offset="1" style="stop-color:#000000"/>
		</linearGradient>

			<rect x="2247.952" y="1439.206" style="fill:url(#SVGID_00000047040415677675747390000008837321029047862937_);" width="540.731" height="217.986"/>
	</g>
</mask>
<polygon style="mask:url(#SVGID_00000036245817323658651950000001908880404666666424_);fill-rule:evenodd;clip-rule:evenodd;fill:#0049E7;" points="
	2769.095,1439.206 2788.683,1512.306 2247.952,1657.192 2270.57,1572.784 "/>
<g>
	<defs>
		<polygon id="SVGID_113_" points="2982.685,1671.603 3021.861,1817.806 2282.542,2015.905 2158.956,1892.32 		"/>
	</defs>
	<clipPath id="SVGID_00000082362257473996451810000013539762556284649660_">
		<use xlink:href="#SVGID_113_"  style="overflow:visible;"/>
	</clipPath>

		<linearGradient id="SVGID_00000001650952932590588220000004010436925626853306_" gradientUnits="userSpaceOnUse" x1="2173.8425" y1="1887.8511" x2="2998.9126" y2="1800.5106">
		<stop  offset="0" style="stop-color:#6A00B8"/>
		<stop  offset="1" style="stop-color:#DB17B9"/>
	</linearGradient>

		<rect x="2158.956" y="1671.603" style="clip-path:url(#SVGID_00000082362257473996451810000013539762556284649660_);fill:url(#SVGID_00000001650952932590588220000004010436925626853306_);" width="862.904" height="344.302"/>
</g>
<defs>

		<filter id="Adobe_OpacityMaskFilter_00000114771504778063672660000012548669547144402581_" filterUnits="userSpaceOnUse" x="2688.499" y="1671.603" width="333.362" height="206.399">
		<feColorMatrix  type="matrix" values="1 0 0 0 0  0 1 0 0 0  0 0 1 0 0  0 0 0 1 0"/>
	</filter>
</defs>
<mask maskUnits="userSpaceOnUse" x="2688.499" y="1671.603" width="333.362" height="206.399" id="SVGID_00000080891071011025688010000018265674564069292455_">
	<g style="filter:url(#Adobe_OpacityMaskFilter_00000114771504778063672660000012548669547144402581_);">

			<linearGradient id="SVGID_00000000224257349869333750000013347456022526226350_" gradientUnits="userSpaceOnUse" x1="1917.3604" y1="2917.8694" x2="1129.7916" y2="3188.1426" gradientTransform="matrix(1 0 0 1 1351.4626 -1285.0186)">
			<stop  offset="0" style="stop-color:#FFFFFF"/>
			<stop  offset="1" style="stop-color:#000000"/>
		</linearGradient>

			<rect x="2688.499" y="1671.603" style="fill:url(#SVGID_00000000224257349869333750000013347456022526226350_);" width="333.362" height="206.399"/>
	</g>
</mask>
<path style="mask:url(#SVGID_00000080891071011025688010000018265674564069292455_);fill-rule:evenodd;clip-rule:evenodd;fill:#FF00D5;" d="
	M2982.685,1671.603l39.176,146.203l-224.653,60.196c125.148-146.285-108.709-127.573-108.709-127.573L2982.685,1671.603z"/>
<defs>

		<filter id="Adobe_OpacityMaskFilter_00000183937947173634443340000005806390136640827293_" filterUnits="userSpaceOnUse" x="2220.749" y="1744.705" width="801.111" height="271.2">
		<feColorMatrix  type="matrix" values="1 0 0 0 0  0 1 0 0 0  0 0 1 0 0  0 0 0 1 0"/>
	</filter>
</defs>
<mask maskUnits="userSpaceOnUse" x="2220.749" y="1744.705" width="801.111" height="271.2" id="SVGID_00000005253151440359526120000015576079847771766177_">
	<g style="filter:url(#Adobe_OpacityMaskFilter_00000183937947173634443340000005806390136640827293_);">

			<linearGradient id="SVGID_00000072238258467314047820000000255316944940079747_" gradientUnits="userSpaceOnUse" x1="359.2055" y1="3369.1389" x2="1792.8253" y2="3042.3625" gradientTransform="matrix(1 0 0 1 1295.3375 -1268.4716)">
			<stop  offset="0" style="stop-color:#FFFFFF"/>
			<stop  offset="1" style="stop-color:#000000"/>
		</linearGradient>

			<rect x="2220.749" y="1744.706" style="fill:url(#SVGID_00000072238258467314047820000000255316944940079747_);" width="801.111" height="271.199"/>
	</g>
</mask>
<polygon style="mask:url(#SVGID_00000005253151440359526120000015576079847771766177_);fill-rule:evenodd;clip-rule:evenodd;fill:#6A00B8;" points="
	3002.274,1744.705 3021.861,1817.806 2282.542,2015.905 2220.749,1954.114 "/>
<g>
	<defs>
		<polygon id="SVGID_120_" points="2661.825,2181.135 2554.799,2288.163 2158.956,1892.32 2327.775,1847.085 		"/>
	</defs>
	<clipPath id="SVGID_00000103244597563606525160000015757004339637193621_">
		<use xlink:href="#SVGID_120_"  style="overflow:visible;"/>
	</clipPath>

		<linearGradient id="SVGID_00000075883918609516454250000004838437161158230940_" gradientUnits="userSpaceOnUse" x1="2097.8481" y1="1932.9539" x2="2797.8237" y2="2234.563">
		<stop  offset="0" style="stop-color:#0049E7"/>
		<stop  offset="1" style="stop-color:#16EA9E"/>
	</linearGradient>

		<rect x="2158.956" y="1847.085" style="clip-path:url(#SVGID_00000103244597563606525160000015757004339637193621_);fill:url(#SVGID_00000075883918609516454250000004838437161158230940_);" width="502.869" height="441.078"/>
</g>
<defs>

		<filter id="Adobe_OpacityMaskFilter_00000145740686179687577210000010733359520371346071_" filterUnits="userSpaceOnUse" x="2387.774" y="2014.109" width="274.051" height="274.054">
		<feColorMatrix  type="matrix" values="1 0 0 0 0  0 1 0 0 0  0 0 1 0 0  0 0 0 1 0"/>
	</filter>
</defs>
<mask maskUnits="userSpaceOnUse" x="2387.774" y="2014.109" width="274.051" height="274.054" id="SVGID_00000118382035399258473380000005552928104385726092_">
	<g style="filter:url(#Adobe_OpacityMaskFilter_00000145740686179687577210000010733359520371346071_);">

			<linearGradient id="SVGID_00000106846818893511140550000004293554912673434009_" gradientUnits="userSpaceOnUse" x1="1612.8868" y1="3780.1987" x2="986.9991" y2="3170.145" gradientTransform="matrix(1 0 0 1 1315.3788 -1235.8035)">
			<stop  offset="0" style="stop-color:#FFFFFF"/>
			<stop  offset="1" style="stop-color:#000000"/>
		</linearGradient>

			<rect x="2387.774" y="2014.11" style="fill:url(#SVGID_00000106846818893511140550000004293554912673434009_);" width="274.051" height="274.053"/>
	</g>
</mask>
<path style="mask:url(#SVGID_00000118382035399258473380000005552928104385726092_);fill-rule:evenodd;clip-rule:evenodd;fill:#16EA9E;" d="
	M2661.825,2181.135l-107.026,107.028l-167.025-167.025v-0.002c176.903,70.738,107.027-107.027,107.027-107.027L2661.825,2181.135z"
	/>
<defs>

		<filter id="Adobe_OpacityMaskFilter_00000172408664438786578420000005678102391658650269_" filterUnits="userSpaceOnUse" x="2158.956" y="1869.702" width="449.355" height="418.46">
		<feColorMatrix  type="matrix" values="1 0 0 0 0  0 1 0 0 0  0 0 1 0 0  0 0 0 1 0"/>
	</filter>
</defs>
<mask maskUnits="userSpaceOnUse" x="2158.956" y="1869.702" width="449.355" height="418.46" id="SVGID_00000108311035189807753600000011808558591287945350_">
	<g style="filter:url(#Adobe_OpacityMaskFilter_00000172408664438786578420000005678102391658650269_);">

			<linearGradient id="SVGID_00000065765961971179366240000008274040447836187307_" gradientUnits="userSpaceOnUse" x1="590.9981" y1="2772.9976" x2="1393.0681" y2="3633.9072" gradientTransform="matrix(1 0 0 1 1287.923 -1235.8035)">
			<stop  offset="0" style="stop-color:#FFFFFF"/>
			<stop  offset="1" style="stop-color:#000000"/>
		</linearGradient>

			<rect x="2158.956" y="1869.702" style="fill:url(#SVGID_00000065765961971179366240000008274040447836187307_);" width="449.356" height="418.46"/>
	</g>
</mask>
<polygon style="mask:url(#SVGID_00000108311035189807753600000011808558591287945350_);fill-rule:evenodd;clip-rule:evenodd;fill:#0049E7;" points="
	2608.311,2234.646 2554.799,2288.163 2158.956,1892.32 2243.367,1869.702 "/>
<g>
	<defs>
		<polygon id="SVGID_127_" points="2513.844,2535.821 2406.815,2642.849 1865.597,2101.631 1910.83,1932.809 		"/>
	</defs>
	<clipPath id="SVGID_00000170988847997587011900000015706680967436924843_">
		<use xlink:href="#SVGID_127_"  style="overflow:visible;"/>
	</clipPath>

		<linearGradient id="SVGID_00000128487149395813718000000000400725540781337535_" gradientUnits="userSpaceOnUse" x1="1933.291" y1="1935.3865" x2="2421.4163" y2="2606.2773">
		<stop  offset="0" style="stop-color:#6A00B8"/>
		<stop  offset="1" style="stop-color:#DB17B9"/>
	</linearGradient>

		<rect x="1865.597" y="1932.809" style="clip-path:url(#SVGID_00000170988847997587011900000015706680967436924843_);fill:url(#SVGID_00000128487149395813718000000000400725540781337535_);" width="648.247" height="710.04"/>
</g>
<defs>

		<filter id="Adobe_OpacityMaskFilter_00000065767106994193803680000012644294988059244979_" filterUnits="userSpaceOnUse" x="2242.359" y="2320.462" width="271.485" height="322.387">
		<feColorMatrix  type="matrix" values="1 0 0 0 0  0 1 0 0 0  0 0 1 0 0  0 0 0 1 0"/>
	</filter>
</defs>
<mask maskUnits="userSpaceOnUse" x="2242.359" y="2320.462" width="271.485" height="322.387" id="SVGID_00000059991070337463966970000009105838275544569778_">
	<g style="filter:url(#Adobe_OpacityMaskFilter_00000065767106994193803680000012644294988059244979_);">

			<linearGradient id="SVGID_00000119115753235344822860000007565141809626008477_" gradientUnits="userSpaceOnUse" x1="1397.7628" y1="3951.5176" x2="769.6767" y2="3404.4634" gradientTransform="matrix(1 0 0 1 1297.9304 -1193.2448)">
			<stop  offset="0" style="stop-color:#FFFFFF"/>
			<stop  offset="1" style="stop-color:#000000"/>
		</linearGradient>

			<rect x="2242.359" y="2320.46" style="fill:url(#SVGID_00000119115753235344822860000007565141809626008477_);" width="271.485" height="322.389"/>
	</g>
</mask>
<path style="mask:url(#SVGID_00000059991070337463966970000009105838275544569778_);fill-rule:evenodd;clip-rule:evenodd;fill:#FF00D5;" d="
	M2513.844,2535.821l-107.029,107.028l-164.456-164.458c189.26,35.24,56.125-157.929,56.125-157.929L2513.844,2535.821z"/>
<defs>

		<filter id="Adobe_OpacityMaskFilter_00000128453174875166735600000007863549111323978396_" filterUnits="userSpaceOnUse" x="1865.597" y="2017.221" width="594.731" height="625.628">
		<feColorMatrix  type="matrix" values="1 0 0 0 0  0 1 0 0 0  0 0 1 0 0  0 0 0 1 0"/>
	</filter>
</defs>
<mask maskUnits="userSpaceOnUse" x="1865.597" y="2017.221" width="594.731" height="625.628" id="SVGID_00000021833028323741359740000006954896201495317664_">
	<g style="filter:url(#Adobe_OpacityMaskFilter_00000128453174875166735600000007863549111323978396_);">

			<linearGradient id="SVGID_00000088116108929227198860000012079086976822261377_" gradientUnits="userSpaceOnUse" x1="229.7763" y1="2789.4946" x2="1229.5262" y2="3867.5854" gradientTransform="matrix(1 0 0 1 1252.7229 -1193.2448)">
			<stop  offset="0" style="stop-color:#FFFFFF"/>
			<stop  offset="1" style="stop-color:#000000"/>
		</linearGradient>

			<rect x="1865.597" y="2017.22" style="fill:url(#SVGID_00000088116108929227198860000012079086976822261377_);" width="594.731" height="625.629"/>
	</g>
</mask>
<polygon style="mask:url(#SVGID_00000021833028323741359740000006954896201495317664_);fill-rule:evenodd;clip-rule:evenodd;fill:#6A00B8;" points="
	2460.328,2589.337 2406.815,2642.849 1865.597,2101.631 1888.214,2017.221 "/>
<g>
	<defs>
		<polygon id="SVGID_134_" points="1912.146,2512.714 1765.943,2473.54 1910.833,1932.809 2034.417,2056.394 		"/>
	</defs>
	<clipPath id="SVGID_00000165206271331434327900000004220305105657654424_">
		<use xlink:href="#SVGID_134_"  style="overflow:visible;"/>
	</clipPath>

		<linearGradient id="SVGID_00000152259156521097300760000000376079963146231479_" gradientUnits="userSpaceOnUse" x1="1862.1255" y1="1898.1995" x2="1950.8818" y2="2655.1829">
		<stop  offset="0" style="stop-color:#0049E7"/>
		<stop  offset="1" style="stop-color:#16EA9E"/>
	</linearGradient>

		<rect x="1765.943" y="1932.809" style="clip-path:url(#SVGID_00000165206271331434327900000004220305105657654424_);fill:url(#SVGID_00000152259156521097300760000000376079963146231479_);" width="268.474" height="579.905"/>
</g>
<defs>

		<filter id="Adobe_OpacityMaskFilter_00000130609157036858682540000004899853442964659638_" filterUnits="userSpaceOnUse" x="1765.943" y="2245.379" width="207.337" height="267.334">
		<feColorMatrix  type="matrix" values="1 0 0 0 0  0 1 0 0 0  0 0 1 0 0  0 0 0 1 0"/>
	</filter>
</defs>
<mask maskUnits="userSpaceOnUse" x="1765.943" y="2245.379" width="207.337" height="267.334" id="SVGID_00000016053116218517831440000004792760789582242434_">
	<g style="filter:url(#Adobe_OpacityMaskFilter_00000130609157036858682540000004899853442964659638_);">

			<linearGradient id="SVGID_00000057106911351029631960000015413967905159200140_" gradientUnits="userSpaceOnUse" x1="489.9703" y1="4133.9575" x2="705.4045" y2="3286.8855" gradientTransform="matrix(1 0 0 1 1240.7655 -1208.8596)">
			<stop  offset="0" style="stop-color:#FFFFFF"/>
			<stop  offset="1" style="stop-color:#000000"/>
		</linearGradient>

			<rect x="1765.943" y="2245.379" style="fill:url(#SVGID_00000057106911351029631960000015413967905159200140_);" width="207.337" height="267.334"/>
	</g>
</mask>
<path style="mask:url(#SVGID_00000016053116218517831440000004792760789582242434_);fill-rule:evenodd;clip-rule:evenodd;fill:#16EA9E;" d="
	M1912.146,2512.714l-146.203-39.174l61.134-228.158l0.003-0.003c27.191,188.572,146.2,39.174,146.2,39.174v0.002L1912.146,2512.714z
	"/>
<defs>

		<filter id="Adobe_OpacityMaskFilter_00000038413396877041548170000004577144009548377222_" filterUnits="userSpaceOnUse" x="1765.943" y="1932.809" width="206.68" height="560.316">
		<feColorMatrix  type="matrix" values="1 0 0 0 0  0 1 0 0 0  0 0 1 0 0  0 0 0 1 0"/>
	</filter>
</defs>
<mask maskUnits="userSpaceOnUse" x="1765.943" y="1932.809" width="206.68" height="560.316" id="SVGID_00000101085551825191073630000008418461902942986890_">
	<g style="filter:url(#Adobe_OpacityMaskFilter_00000038413396877041548170000004577144009548377222_);">

			<linearGradient id="SVGID_00000127767066577336414850000003010710264065074611_" gradientUnits="userSpaceOnUse" x1="842.4904" y1="2725.426" x2="497.9624" y2="3850.5212" gradientTransform="matrix(1 0 0 1 1240.7655 -1211.2101)">
			<stop  offset="0" style="stop-color:#FFFFFF"/>
			<stop  offset="1" style="stop-color:#000000"/>
		</linearGradient>

			<rect x="1765.943" y="1932.81" style="fill:url(#SVGID_00000127767066577336414850000003010710264065074611_);" width="206.68" height="560.315"/>
	</g>
</mask>
<polygon style="mask:url(#SVGID_00000101085551825191073630000008418461902942986890_);fill-rule:evenodd;clip-rule:evenodd;fill:#0049E7;" points="
	1839.043,2493.125 1765.943,2473.54 1910.833,1932.809 1972.623,1994.603 "/>
<g>
	<defs>
		<polygon id="SVGID_141_" points="1530.988,2561.901 1384.783,2522.726 1582.882,1783.409 1751.706,1738.171 		"/>
	</defs>
	<clipPath id="SVGID_00000176759053027967885780000003469828777399346081_">
		<use xlink:href="#SVGID_141_"  style="overflow:visible;"/>
	</clipPath>

		<linearGradient id="SVGID_00000022539982989583703820000001293643225972369290_" gradientUnits="userSpaceOnUse" x1="1745.1301" y1="1751.9893" x2="1408.1841" y2="2510.2207">
		<stop  offset="0" style="stop-color:#6A00B8"/>
		<stop  offset="1" style="stop-color:#DB17B9"/>
	</linearGradient>

		<rect x="1384.783" y="1738.171" style="clip-path:url(#SVGID_00000176759053027967885780000003469828777399346081_);fill:url(#SVGID_00000022539982989583703820000001293643225972369290_);" width="366.923" height="823.731"/>
</g>
<defs>

		<filter id="Adobe_OpacityMaskFilter_00000140700975504233420000000006716742943363971764_" filterUnits="userSpaceOnUse" x="1384.783" y="2267.714" width="225.031" height="294.187">
		<feColorMatrix  type="matrix" values="1 0 0 0 0  0 1 0 0 0  0 0 1 0 0  0 0 0 1 0"/>
	</filter>
</defs>
<mask maskUnits="userSpaceOnUse" x="1384.783" y="2267.714" width="225.031" height="294.187" id="SVGID_00000057828548732526184590000007098209948165312679_">
	<g style="filter:url(#Adobe_OpacityMaskFilter_00000140700975504233420000000006716742943363971764_);">

			<linearGradient id="SVGID_00000144314167206326218280000008318212437694362793_" gradientUnits="userSpaceOnUse" x1="221.463" y1="4031.063" x2="381.2269" y2="3213.9089" gradientTransform="matrix(1 0 0 1 1195.0302 -1202.9576)">
			<stop  offset="0" style="stop-color:#FFFFFF"/>
			<stop  offset="1" style="stop-color:#000000"/>
		</linearGradient>

			<rect x="1384.783" y="2267.713" style="fill:url(#SVGID_00000144314167206326218280000008318212437694362793_);" width="225.03" height="294.188"/>
	</g>
</mask>
<path style="mask:url(#SVGID_00000057828548732526184590000007098209948165312679_);fill-rule:evenodd;clip-rule:evenodd;fill:#FF00D5;" d="
	M1530.988,2561.901l-146.205-39.176l60.197-224.652c64.111,181.522,164.834-30.359,164.834-30.359L1530.988,2561.901z"/>
<defs>

		<filter id="Adobe_OpacityMaskFilter_00000143591485974371851730000003729847638890106519_" filterUnits="userSpaceOnUse" x="1384.783" y="1760.791" width="282.511" height="781.521">
		<feColorMatrix  type="matrix" values="1 0 0 0 0  0 1 0 0 0  0 0 1 0 0  0 0 0 1 0"/>
	</filter>
</defs>
<mask maskUnits="userSpaceOnUse" x="1384.783" y="1760.791" width="282.511" height="781.521" id="SVGID_00000062153303169383906240000007282454357877944224_">
	<g style="filter:url(#Adobe_OpacityMaskFilter_00000143591485974371851730000003729847638890106519_);">

			<linearGradient id="SVGID_00000178908080840422942100000006652360172297647279_" gradientUnits="userSpaceOnUse" x1="625.915" y1="2401.7153" x2="192.1277" y2="3806.666" gradientTransform="matrix(1 0 0 1 1195.0302 -1205.3081)">
			<stop  offset="0" style="stop-color:#FFFFFF"/>
			<stop  offset="1" style="stop-color:#000000"/>
		</linearGradient>

			<rect x="1384.783" y="1760.79" style="fill:url(#SVGID_00000178908080840422942100000006652360172297647279_);" width="282.511" height="781.522"/>
	</g>
</mask>
<polygon style="mask:url(#SVGID_00000062153303169383906240000007282454357877944224_);fill-rule:evenodd;clip-rule:evenodd;fill:#6A00B8;" points="
	1457.886,2542.313 1384.783,2522.726 1582.882,1783.409 1667.294,1760.791 "/>
<g>
	<defs>
		<polygon id="SVGID_148_" points="1250.15,2029.262 1210.975,1883.059 1751.706,1738.173 1706.47,1906.993 		"/>
	</defs>
	<clipPath id="SVGID_00000075880282390065447170000007936307867243878050_">
		<use xlink:href="#SVGID_148_"  style="overflow:visible;"/>
	</clipPath>

		<linearGradient id="SVGID_00000175294263248724885120000015320611002728394404_" gradientUnits="userSpaceOnUse" x1="1757.032" y1="1678.2828" x2="1145.8154" y2="2133.7368">
		<stop  offset="0" style="stop-color:#0049E7"/>
		<stop  offset="1" style="stop-color:#16EA9E"/>
	</linearGradient>

		<rect x="1210.975" y="1738.173" style="clip-path:url(#SVGID_00000075880282390065447170000007936307867243878050_);fill:url(#SVGID_00000175294263248724885120000015320611002728394404_);" width="540.731" height="291.089"/>
</g>
<defs>

		<filter id="Adobe_OpacityMaskFilter_00000004524279506397292530000004402285962706828180_" filterUnits="userSpaceOnUse" x="1210.975" y="1821.925" width="267.335" height="207.337">
		<feColorMatrix  type="matrix" values="1 0 0 0 0  0 1 0 0 0  0 0 1 0 0  0 0 0 1 0"/>
	</filter>
</defs>
<mask maskUnits="userSpaceOnUse" x="1210.975" y="1821.925" width="267.335" height="207.337" id="SVGID_00000131328364298854486950000001893773509352489877_">
	<g style="filter:url(#Adobe_OpacityMaskFilter_00000004524279506397292530000004402285962706828180_);">

			<linearGradient id="SVGID_00000072989977159498194280000016248179111784750517_" gradientUnits="userSpaceOnUse" x1="-371.8062" y1="3345.249" x2="469.4335" y2="3108.228" gradientTransform="matrix(1 0 0 1 1174.1749 -1266.8689)">
			<stop  offset="0" style="stop-color:#FFFFFF"/>
			<stop  offset="1" style="stop-color:#000000"/>
		</linearGradient>

			<rect x="1210.975" y="1821.925" style="fill:url(#SVGID_00000072989977159498194280000016248179111784750517_);" width="267.335" height="207.337"/>
	</g>
</mask>
<path style="mask:url(#SVGID_00000131328364298854486950000001893773509352489877_);fill-rule:evenodd;clip-rule:evenodd;fill:#16EA9E;" d="
	M1250.15,2029.262l-39.176-146.203l228.159-61.134h0.002c-149.713,117.836,39.174,146.203,39.174,146.203L1250.15,2029.262z"/>
<defs>

		<filter id="Adobe_OpacityMaskFilter_00000098924915532347511370000003221318827713279410_" filterUnits="userSpaceOnUse" x="1210.975" y="1738.173" width="540.731" height="217.987">
		<feColorMatrix  type="matrix" values="1 0 0 0 0  0 1 0 0 0  0 0 1 0 0  0 0 0 1 0"/>
	</filter>
</defs>
<mask maskUnits="userSpaceOnUse" x="1210.975" y="1738.173" width="540.731" height="217.987" id="SVGID_00000172440971456275829090000013886562586005533362_">
	<g style="filter:url(#Adobe_OpacityMaskFilter_00000098924915532347511370000003221318827713279410_);">

			<linearGradient id="SVGID_00000073700879414957998930000012249785776286002874_" gradientUnits="userSpaceOnUse" x1="1026.9827" y1="2956.9656" x2="-119.6995" y2="3221.1543" gradientTransform="matrix(1 0 0 1 1174.1749 -1275.6404)">
			<stop  offset="0" style="stop-color:#FFFFFF"/>
			<stop  offset="1" style="stop-color:#000000"/>
		</linearGradient>

			<rect x="1210.975" y="1738.174" style="fill:url(#SVGID_00000073700879414957998930000012249785776286002874_);" width="540.731" height="217.986"/>
	</g>
</mask>
<polygon style="mask:url(#SVGID_00000172440971456275829090000013886562586005533362_);fill-rule:evenodd;clip-rule:evenodd;fill:#0049E7;" points="
	1230.563,1956.16 1210.975,1883.059 1751.706,1738.173 1729.087,1822.581 "/>
<g>
	<defs>
		<polygon id="SVGID_155_" points="1016.974,1723.762 977.797,1577.56 1717.115,1379.461 1840.702,1503.045 		"/>
	</defs>
	<clipPath id="SVGID_00000066512557828380836100000004125420833683676863_">
		<use xlink:href="#SVGID_155_"  style="overflow:visible;"/>
	</clipPath>

		<linearGradient id="SVGID_00000103266976971338395480000012227092220133070232_" gradientUnits="userSpaceOnUse" x1="1825.8251" y1="1507.5179" x2="1000.6712" y2="1594.8583">
		<stop  offset="0" style="stop-color:#6A00B8"/>
		<stop  offset="1" style="stop-color:#DB17B9"/>
	</linearGradient>

		<rect x="977.797" y="1379.461" style="clip-path:url(#SVGID_00000066512557828380836100000004125420833683676863_);fill:url(#SVGID_00000103266976971338395480000012227092220133070232_);" width="862.904" height="344.301"/>
</g>
<defs>

		<filter id="Adobe_OpacityMaskFilter_00000055678828685165776750000000785564286781895296_" filterUnits="userSpaceOnUse" x="977.797" y="1517.364" width="333.362" height="206.398">
		<feColorMatrix  type="matrix" values="1 0 0 0 0  0 1 0 0 0  0 0 1 0 0  0 0 0 1 0"/>
	</filter>
</defs>
<mask maskUnits="userSpaceOnUse" x="977.797" y="1517.364" width="333.362" height="206.398" id="SVGID_00000181056566304618455110000002140020377218318494_">
	<g style="filter:url(#Adobe_OpacityMaskFilter_00000055678828685165776750000000785564286781895296_);">

			<linearGradient id="SVGID_00000024687310485776118920000008938876102819350463_" gradientUnits="userSpaceOnUse" x1="-415.376" y1="3066.0452" x2="372.1926" y2="2795.772" gradientTransform="matrix(1 0 0 1 1146.196 -1303.5258)">
			<stop  offset="0" style="stop-color:#FFFFFF"/>
			<stop  offset="1" style="stop-color:#000000"/>
		</linearGradient>

			<rect x="977.797" y="1517.363" style="fill:url(#SVGID_00000024687310485776118920000008938876102819350463_);" width="333.362" height="206.399"/>
	</g>
</mask>
<path style="mask:url(#SVGID_00000181056566304618455110000002140020377218318494_);fill-rule:evenodd;clip-rule:evenodd;fill:#FF00D5;" d="
	M1016.974,1723.762l-39.177-146.202l224.653-60.196c-125.148,146.285,108.709,127.571,108.709,127.571L1016.974,1723.762z"/>
<defs>

		<filter id="Adobe_OpacityMaskFilter_00000070091956393171169670000014131190524262928518_" filterUnits="userSpaceOnUse" x="977.797" y="1379.461" width="801.111" height="271.199">
		<feColorMatrix  type="matrix" values="1 0 0 0 0  0 1 0 0 0  0 0 1 0 0  0 0 0 1 0"/>
	</filter>
</defs>
<mask maskUnits="userSpaceOnUse" x="977.797" y="1379.461" width="801.111" height="271.199" id="SVGID_00000160191696921453578750000016079955346925366925_">
	<g style="filter:url(#Adobe_OpacityMaskFilter_00000070091956393171169670000014131190524262928518_);">

			<linearGradient id="SVGID_00000080180139603793496680000017486017156328559003_" gradientUnits="userSpaceOnUse" x1="1198.8752" y1="2606.9917" x2="-234.66" y2="2933.7698" gradientTransform="matrix(1 0 0 1 1146.196 -1312.2972)">
			<stop  offset="0" style="stop-color:#FFFFFF"/>
			<stop  offset="1" style="stop-color:#000000"/>
		</linearGradient>

			<rect x="977.797" y="1379.461" style="fill:url(#SVGID_00000080180139603793496680000017486017156328559003_);" width="801.111" height="271.199"/>
	</g>
</mask>
<polygon style="mask:url(#SVGID_00000160191696921453578750000016079955346925366925_);fill-rule:evenodd;clip-rule:evenodd;fill:#6A00B8;" points="
	997.384,1650.66 977.797,1577.56 1717.115,1379.461 1778.908,1441.252 "/>
<g>
	<defs>
		<polygon id="SVGID_162_" points="1337.833,1214.231 1444.859,1107.202 1840.702,1503.045 1671.882,1548.281 		"/>
	</defs>
	<clipPath id="SVGID_00000060019971187841823600000003108265831774300851_">
		<use xlink:href="#SVGID_162_"  style="overflow:visible;"/>
	</clipPath>

		<linearGradient id="SVGID_00000110467417652411942120000013619524548741650816_" gradientUnits="userSpaceOnUse" x1="1901.8192" y1="1462.4152" x2="1201.8431" y2="1160.8071">
		<stop  offset="0" style="stop-color:#0049E7"/>
		<stop  offset="1" style="stop-color:#16EA9E"/>
	</linearGradient>

		<rect x="1337.833" y="1107.202" style="clip-path:url(#SVGID_00000060019971187841823600000003108265831774300851_);fill:url(#SVGID_00000110467417652411942120000013619524548741650816_);" width="502.869" height="441.079"/>
</g>
<defs>

		<filter id="Adobe_OpacityMaskFilter_00000181780010914573735590000009187052464605512893_" filterUnits="userSpaceOnUse" x="1337.833" y="1107.202" width="274.051" height="274.053">
		<feColorMatrix  type="matrix" values="1 0 0 0 0  0 1 0 0 0  0 0 1 0 0  0 0 0 1 0"/>
	</filter>
</defs>
<mask maskUnits="userSpaceOnUse" x="1337.833" y="1107.202" width="274.051" height="274.053" id="SVGID_00000083808863735300133100000007277071437082900894_">
	<g style="filter:url(#Adobe_OpacityMaskFilter_00000181780010914573735590000009187052464605512893_);">

			<linearGradient id="SVGID_00000060713240006689060410000000790511861165589939_" gradientUnits="userSpaceOnUse" x1="-118.0028" y1="2195.5945" x2="507.8849" y2="2805.6479" gradientTransform="matrix(1 0 0 1 1189.3966 -1344.623)">
			<stop  offset="0" style="stop-color:#FFFFFF"/>
			<stop  offset="1" style="stop-color:#000000"/>
		</linearGradient>

			<rect x="1337.833" y="1107.202" style="fill:url(#SVGID_00000060713240006689060410000000790511861165589939_);" width="274.051" height="274.053"/>
	</g>
</mask>
<path style="mask:url(#SVGID_00000083808863735300133100000007277071437082900894_);fill-rule:evenodd;clip-rule:evenodd;fill:#16EA9E;" d="
	M1337.833,1214.231l107.026-107.029l167.025,167.025v0.003c-176.903-70.738-107.026,107.025-107.026,107.025L1337.833,1214.231z"/>
<defs>

		<filter id="Adobe_OpacityMaskFilter_00000103239015501465685840000015157886628189007267_" filterUnits="userSpaceOnUse" x="1391.347" y="1107.202" width="449.355" height="418.46">
		<feColorMatrix  type="matrix" values="1 0 0 0 0  0 1 0 0 0  0 0 1 0 0  0 0 0 1 0"/>
	</filter>
</defs>
<mask maskUnits="userSpaceOnUse" x="1391.347" y="1107.202" width="449.355" height="418.46" id="SVGID_00000013179497315157026250000010222230360062937735_">
	<g style="filter:url(#Adobe_OpacityMaskFilter_00000103239015501465685840000015157886628189007267_);">

			<linearGradient id="SVGID_00000047030917728742733780000004974846698000886201_" gradientUnits="userSpaceOnUse" x1="924.9069" y1="3185.5039" x2="122.8386" y2="2324.5144" gradientTransform="matrix(1 0 0 1 1195.8177 -1327.2957)">
			<stop  offset="0" style="stop-color:#FFFFFF"/>
			<stop  offset="1" style="stop-color:#000000"/>
		</linearGradient>

			<rect x="1391.347" y="1107.202" style="fill:url(#SVGID_00000047030917728742733780000004974846698000886201_);" width="449.356" height="418.46"/>
	</g>
</mask>
<polygon style="mask:url(#SVGID_00000013179497315157026250000010222230360062937735_);fill-rule:evenodd;clip-rule:evenodd;fill:#0049E7;" points="
	1391.347,1160.718 1444.859,1107.202 1840.702,1503.045 1756.291,1525.662 "/>
<path d="M2780.082,3227.878v-53.499h83.091v-20.123h-83.091v-50.898h93.271v-20.596h-116.944v165.71h120.259v-20.595H2780.082z
	 M2648.227,3177.928h-40.244v-74.569h40.244c30.3,0,46.159,13.494,46.159,37.167
	C2694.386,3164.197,2678.528,3177.928,2648.227,3177.928z M2720.902,3248.473l-39.299-55.629
	c23.201-8.287,36.457-26.752,36.457-52.318c0-35.984-26.041-57.763-69.124-57.763h-64.625v165.71h23.674v-50.423h40.952
	c3.551,0,7.102-0.239,10.417-0.475l35.745,50.898H2720.902z M2449.376,3227.878v-53.499h83.088v-20.123h-83.088v-50.898h93.271
	v-20.596h-116.944v165.71h120.259v-20.595H2449.376z M2352.315,3082.763v71.258h-95.163v-71.258h-23.673v165.71h23.673v-73.858
	h95.163v73.858h23.674v-165.71H2352.315z M2096.411,3082.763v123.573l-99.425-123.573h-19.412v165.71h23.675v-123.572
	l99.423,123.572h19.412v-165.71H2096.411z M1830.092,3188.107l35.748-81.196l35.743,81.196H1830.092z M1928.096,3248.473h24.859
	l-75.281-165.71h-23.436l-75.042,165.71h24.383l18.229-41.426h88.061L1928.096,3248.473z M1736.35,3218.646
	c-11.836,7.577-24.858,10.652-38.824,10.652c-38.113,0-65.813-27.224-65.813-63.677c0-36.93,27.7-63.681,66.048-63.681
	c18.701,0,34.327,5.921,48.057,19.176l14.677-14.678c-15.15-16.806-37.405-25.566-63.68-25.566
	c-51.369,0-88.775,35.746-88.775,84.75s37.407,84.749,88.302,84.749c23.2,0,46.162-7.104,62.734-21.071v-64.625h-22.726V3218.646z
	 M1497.491,3229.298c-37.164,0-64.627-26.987-64.627-63.677c0-36.693,27.463-63.681,64.627-63.681
	c36.693,0,64.155,26.988,64.155,63.681C1561.646,3202.311,1534.184,3229.298,1497.491,3229.298z M1497.491,3250.369
	c50.421,0,87.825-35.982,87.825-84.749c0-48.767-37.404-84.75-87.825-84.75c-50.897,0-88.301,36.217-88.301,84.75
	C1409.19,3214.148,1446.594,3250.369,1497.491,3250.369z M1285.144,3248.473h113.394v-20.595h-89.72v-145.115h-23.674V3248.473z
	 M1186.429,3250.369c43.796,0,64.152-21.779,64.152-47.069c0-60.8-100.371-35.433-100.371-75.991
	c0-14.479,12.074-26.318,40.243-26.318c14.678,0,31.014,4.263,45.454,13.497l7.812-18.94c-13.733-9.47-33.854-14.677-53.266-14.677
	c-43.557,0-63.441,21.779-63.441,47.383c0,61.591,100.371,36.064,100.371,76.466c0,14.439-12.308,25.526-40.954,25.526
	c-21.305,0-42.375-8.009-54.683-19.135l-8.757,18.427C1136.244,3241.844,1161.1,3250.369,1186.429,3250.369z"/>
<path d="M3079.716,3040.986l-0.583-203.615h-47.412l-69.811,117.516l-71.558-117.516h-47.413v203.615h53.232v-105.007l52.068,84.936
	h25.596l52.358-87.845l0.583,107.916H3079.716z M2708.262,3045.059c60.211,0,95.699-34.033,95.699-94.829v-112.86h-56.722v111.116
	c0,34.905-14.545,48.869-38.398,48.869c-24.139,0-38.684-13.964-38.684-48.869V2837.37h-57.596v112.86
	C2612.561,3011.026,2648.05,3045.059,2708.262,3045.059z M2497.666,3045.059c60.501,0,90.173-30.253,90.173-65.642
	c0-75.047-115.479-51.731-115.479-82.952c0-10.228,8.727-18.372,32.87-18.372c17.742,0,36.942,5.235,56.429,15.758l17.745-42.81
	c-20.068-11.635-47.414-17.744-73.885-17.744c-60.501,0-90.173,29.672-90.173,66.077c0,75.68,115.772,52.166,115.772,84.357
	c0,9.89-9.309,16.533-33.161,16.533c-23.561,0-49.158-8.097-67.194-19.975l-18.906,42.372
	C2431.056,3036.042,2464.217,3045.059,2497.666,3045.059z M2301.322,2942.377h-31.996v-59.629h31.996
	c23.854,0,35.779,11.053,35.779,29.96C2337.1,2931.323,2325.175,2942.377,2301.322,2942.377z M2304.813,2837.37h-93.08v203.615
	h57.593v-53.232h35.488c55.56,0,90.464-28.797,90.464-75.046C2395.277,2866.167,2360.373,2837.37,2304.813,2837.37z
	 M2113.123,3040.986h57.596V2837.37h-57.596V3040.986z M1987.755,3040.986l-0.582-203.615h-47.413l-69.812,117.516l-71.555-117.516
	h-47.414v203.615h53.233v-105.007l52.064,84.936h25.599l52.355-87.845l0.584,107.916H1987.755z M1612.522,2996.48v-37.231h90.462
	v-43.052h-90.462v-34.321h102.68v-44.506H1555.51v203.615h163.474v-44.506H1612.522z M1465.627,2912.708
	c0,18.615-11.925,29.67-35.778,29.67h-31.994v-59.629h31.994C1453.702,2882.748,1465.627,2893.801,1465.627,2912.708z
	 M1466.211,3040.986h61.666l-43.922-63.993c25.305-12.218,39.848-34.323,39.848-64.286c0-46.54-34.904-75.337-90.464-75.337h-93.08
	v203.615h57.596v-54.104h31.414L1466.211,3040.986z M1196.859,2997.355c-30.834,0-54.978-22.982-54.978-58.178
	c0-35.194,24.144-58.176,54.978-58.176c30.832,0,54.973,22.983,54.973,58.176
	C1251.832,2974.374,1227.691,2997.355,1196.859,2997.355z M1196.859,3045.059c65.155,0,113.15-44.795,113.15-105.882
	c0-61.084-47.995-105.88-113.15-105.88c-65.159,0-113.155,44.796-113.155,105.88
	C1083.704,3000.264,1131.7,3045.059,1196.859,3045.059z M919.939,3040.986h154.747v-45.667h-97.154V2837.37h-57.594V3040.986z"/>
</svg>
