<?xml version="1.0" encoding="utf-8"?>
<!-- Generator: Adobe Illustrator 27.5.0, SVG Export Plug-In . SVG Version: 6.00 Build 0)  -->
<svg version="1.1" xmlns="http://www.w3.org/2000/svg" xmlns:xlink="http://www.w3.org/1999/xlink" x="0px" y="0px"
	 viewBox="0 0 1200 1200" style="enable-background:new 0 0 1200 1200;" xml:space="preserve">
<g id="Bg">
	<rect style="fill:transparent;" width="1200" height="1200"/>
</g>
<g id="objects">
	<g>
		<g>
			<g>
				<path d="M445.432,394.132c-0.298,0.278-0.788,0.734-1.469,1.369c-0.681,0.636-1.384,1.291-2.107,1.966s-1.426,1.33-2.106,1.965
					c-0.682,0.636-1.172,1.093-1.469,1.369l-1.213,1.132c-0.298,0.279-0.788,0.736-1.469,1.37c-0.681,0.635-1.384,1.29-2.107,1.965
					c-0.724,0.676-1.426,1.33-2.106,1.965c-0.682,0.636-1.172,1.093-1.469,1.37l-0.188,0.055l-0.881-1.328l0.018-0.493
					c0.68-0.635,1.3-1.273,1.858-1.912c0.557-0.639,0.889-1.286,0.994-1.943c0.063-0.614,0.015-1.285-0.146-2.012
					c-0.16-0.726-0.731-1.744-1.715-3.056c-0.236-0.336-0.531-0.717-0.887-1.143c-0.356-0.424-0.801-0.943-1.336-1.56
					c-0.535-0.615-1.197-1.348-1.993-2.201c-0.793-0.85-1.786-1.915-2.977-3.192l-6.848-7.342l-22.731,21.2l5.658,6.065
					c1.429,1.533,2.589,2.778,3.484,3.736c0.893,0.957,1.647,1.747,2.264,2.364c0.616,0.62,1.144,1.143,1.582,1.569
					c0.439,0.427,0.916,0.877,1.436,1.347c1.196,1.113,2.162,1.765,2.896,1.955c0.734,0.191,1.412,0.276,2.029,0.256
					c0.661-0.06,1.33-0.345,2.007-0.856c0.676-0.512,1.356-1.085,2.036-1.721l0.493,0.017l1.264,0.971l-0.068,0.183
					c-0.298,0.279-0.788,0.736-1.469,1.37c-0.681,0.635-1.384,1.29-2.107,1.965c-0.725,0.676-1.426,1.33-2.107,1.965
					c-0.681,0.636-1.171,1.093-1.468,1.37l-1.213,1.132c-0.298,0.278-0.788,0.734-1.469,1.369c-0.681,0.636-1.384,1.291-2.107,1.965
					c-0.725,0.676-1.426,1.331-2.107,1.966c-0.681,0.636-1.171,1.093-1.468,1.369l-0.188,0.056l-0.881-1.329l0.082-0.553
					c0.68-0.635,1.289-1.262,1.826-1.882c0.536-0.619,0.858-1.257,0.962-1.912c0.063-0.615,0.035-1.306-0.082-2.072
					c-0.118-0.766-0.691-1.784-1.716-3.056c-0.278-0.297-0.594-0.658-0.951-1.084c-0.356-0.423-0.8-0.943-1.335-1.559
					c-0.535-0.615-1.199-1.35-1.993-2.201c-0.794-0.851-1.787-1.916-2.978-3.192l-12.088-12.961c-1.388-1.49-2.56-2.745-3.513-3.767
					c-0.954-1.022-1.777-1.883-2.474-2.588c-0.697-0.703-1.294-1.301-1.79-1.792c-0.498-0.491-1.007-0.972-1.525-1.443
					c-1.158-1.069-2.113-1.709-2.867-1.922c-0.754-0.211-1.441-0.307-2.06-0.288c-0.66,0.06-1.319,0.335-1.974,0.826
					c-0.657,0.493-1.324,1.056-2.005,1.691l-0.558,0.043l-1.263-0.971l0.068-0.183c0.297-0.278,0.787-0.734,1.469-1.369
					c0.68-0.635,1.382-1.29,2.107-1.966c0.722-0.674,1.425-1.329,2.106-1.965c0.681-0.635,1.171-1.091,1.469-1.369l1.213-1.132
					c0.297-0.278,0.787-0.734,1.469-1.37c0.68-0.635,1.382-1.289,2.107-1.965c0.722-0.675,1.425-1.33,2.106-1.965
					c0.681-0.635,1.171-1.091,1.469-1.37l0.188-0.055l0.881,1.328l-0.018,0.493c-0.681,0.636-1.301,1.274-1.857,1.912
					c-0.558,0.639-0.889,1.287-0.994,1.941c-0.063,0.618-0.026,1.298,0.113,2.043c0.139,0.748,0.722,1.756,1.748,3.027
					c0.514,0.636,0.998,1.219,1.453,1.749c0.454,0.531,0.989,1.147,1.603,1.848c0.614,0.702,1.378,1.541,2.291,2.519
					c0.914,0.98,2.084,2.235,3.513,3.767l2.68,2.873l22.73-21.199l-2.62-2.81c-1.388-1.49-2.56-2.745-3.513-3.767
					c-0.953-1.021-1.777-1.883-2.474-2.587c-0.697-0.703-1.293-1.301-1.79-1.793c-0.498-0.49-1.006-0.971-1.525-1.442
					c-1.196-1.112-2.162-1.762-2.896-1.955c-0.734-0.189-1.412-0.275-2.031-0.256c-0.66,0.06-1.33,0.346-2.006,0.856
					c-0.677,0.513-1.357,1.086-2.036,1.721l-0.493-0.017l-1.264-0.971l0.068-0.183c0.297-0.278,0.788-0.734,1.469-1.37
					c0.681-0.635,1.383-1.29,2.107-1.965c0.723-0.675,1.425-1.33,2.107-1.965c0.68-0.635,1.169-1.091,1.468-1.37l1.213-1.132
					c0.297-0.277,0.788-0.733,1.469-1.369c0.681-0.635,1.383-1.29,2.107-1.966c0.724-0.674,1.425-1.329,2.107-1.965
					c0.68-0.635,1.169-1.091,1.468-1.369l0.188-0.056l0.881,1.329l-0.082,0.553c-0.681,0.635-1.29,1.263-1.826,1.882
					c-0.537,0.62-0.856,1.258-0.962,1.912c-0.063,0.616-0.035,1.307,0.082,2.072c0.118,0.767,0.691,1.786,1.716,3.056
					c0.514,0.637,0.997,1.219,1.453,1.749c0.454,0.532,1,1.138,1.635,1.819c0.636,0.681,1.41,1.51,2.323,2.49
					c0.913,0.979,2.084,2.235,3.513,3.767l10.957,11.748c1.429,1.532,2.59,2.777,3.483,3.736c0.893,0.957,1.637,1.755,2.233,2.393
					c0.596,0.639,1.112,1.172,1.551,1.599c0.437,0.426,0.916,0.876,1.436,1.347c1.196,1.113,2.173,1.754,2.928,1.924
					c0.756,0.171,1.443,0.247,2.062,0.225c0.661-0.059,1.318-0.334,1.974-0.826c0.655-0.492,1.324-1.056,2.005-1.691l0.558-0.043
					l1.263,0.971L445.432,394.132z"/>
				<path d="M490.084,306.815c0.705-0.273,1.778-0.687,3.218-1.242c1.438-0.555,2.892-1.116,4.358-1.682
					c1.465-0.565,2.782-1.073,3.95-1.524c1.167-0.451,1.885-0.728,2.158-0.833l0.691,0.576l3.095,8.991l-2.036,0.786l-0.453-0.205
					c-0.597-1.223-1.128-2.155-1.594-2.797c-0.466-0.642-1.21-0.955-2.234-0.94c-1.023,0.017-2.431,0.37-4.223,1.061
					c-1.792,0.692-4.317,1.666-7.575,2.923l-7.82,3.018l1.047,3.2c0.277,0.879,0.515,1.619,0.716,2.219
					c0.2,0.6,0.453,1.335,0.758,2.203c0.302,0.868,0.688,1.906,1.154,3.112c0.465,1.207,1.588,4.116,3.368,8.727
					c1.63-0.629,3.258-1.257,4.888-1.887c1.628-0.629,3.107-1.198,4.439-1.712c1.33-0.513,2.419-1.044,3.269-1.593
					c0.848-0.548,1.362-1.079,1.54-1.588c0.264-0.607,0.475-1.193,0.631-1.759c0.156-0.566,0.074-1.262-0.244-2.086l0.252-0.558
					l1.323-0.695l0.388,0.035c0.372,1.289,0.695,2.408,0.97,3.361c0.274,0.953,0.639,2.023,1.1,3.214
					c0.502,1.301,1.007,2.491,1.518,3.569c0.51,1.079,1.07,2.249,1.68,3.505l-0.262,0.289l-1.53,0.403l-0.42-0.118
					c-0.34-0.882-0.816-1.633-1.43-2.252c-0.613-0.619-1.233-1.092-1.859-1.421c-0.453-0.205-1.174-0.212-2.161-0.022
					c-0.988,0.191-2.132,0.538-3.435,1.041c-1.303,0.503-2.77,1.068-4.4,1.697c-1.628,0.63-3.285,1.269-4.968,1.918l3.038,7.87
					c0.751,1.948,1.362,3.531,1.832,4.748c0.469,1.216,0.9,2.293,1.294,3.229c0.392,0.937,0.767,1.788,1.124,2.551
					c0.356,0.764,0.787,1.638,1.294,2.622c0.398,1.033,1.139,1.339,2.225,0.92l6.923-2.672c3.258-1.257,5.799-2.314,7.619-3.174
					c1.822-0.858,3.138-1.693,3.946-2.506c0.81-0.811,1.246-1.744,1.307-2.797c0.062-1.054-0.001-2.386-0.186-3.999l0.201-0.452
					l2.117-0.817l2.497,10.836l-0.34,1.06c-0.272,0.105-0.895,0.345-1.873,0.722c-0.977,0.378-2.077,0.802-3.298,1.273
					c-1.222,0.471-2.443,0.944-3.665,1.415c-1.222,0.471-2.186,0.843-2.892,1.116l-16.454,6.35c-0.38,0.146-1.005,0.387-1.873,0.722
					c-0.868,0.336-1.765,0.682-2.687,1.038c-0.924,0.357-1.821,0.703-2.688,1.038c-0.87,0.335-1.495,0.576-1.873,0.722l-0.195-0.018
					l-0.322-1.56l0.281-0.484c0.868-0.335,1.668-0.689,2.397-1.065c0.728-0.375,1.264-0.847,1.607-1.415
					c0.288-0.547,0.52-1.198,0.697-1.954c0.177-0.754,0.024-1.912-0.453-3.475c-0.146-0.379-0.306-0.832-0.478-1.359
					c-0.172-0.526-0.392-1.174-0.658-1.946c-0.266-0.77-0.608-1.698-1.028-2.784c-0.419-1.086-0.943-2.443-1.571-4.073
					l-6.381-16.535c-0.733-1.9-1.352-3.503-1.855-4.805c-0.502-1.303-0.932-2.417-1.289-3.34c-0.356-0.923-0.674-1.705-0.951-2.347
					c-0.28-0.641-0.572-1.276-0.877-1.907c-0.676-1.424-1.336-2.369-1.984-2.837c-0.648-0.466-1.263-0.808-1.844-1.02
					c-0.635-0.191-1.35-0.181-2.14,0.03c-0.793,0.212-1.624,0.486-2.491,0.821l-0.534-0.169l-0.81-1.371l0.132-0.145
					c0.379-0.146,1.004-0.387,1.873-0.722c0.868-0.335,1.805-0.697,2.81-1.085c1.004-0.387,1.982-0.764,2.932-1.132
					c0.95-0.365,1.724-0.665,2.322-0.895L490.084,306.815z"/>
				<path d="M580.981,295.391c-0.157-1.626-0.447-2.754-0.868-3.385c-0.424-0.63-0.873-1.142-1.348-1.538
					c-0.533-0.395-1.209-0.626-2.026-0.693c-0.817-0.067-1.692-0.09-2.621-0.067l-0.446-0.339l-0.3-1.564l0.172-0.091
					c0.407-0.011,1.077-0.027,2.008-0.05c0.929-0.023,1.889-0.046,2.88-0.071c0.989-0.024,1.949-0.047,2.881-0.071
					c0.931-0.023,1.599-0.039,2.007-0.049l1.659-0.042c0.406-0.01,1.076-0.025,2.007-0.049c0.929-0.023,1.89-0.046,2.879-0.071
					c0.989-0.024,1.949-0.048,2.881-0.071c0.931-0.023,1.599-0.039,2.007-0.05l0.177,0.083l-0.223,1.579l-0.341,0.357
					c-0.931,0.023-1.817,0.089-2.659,0.196c-0.842,0.108-1.519,0.374-2.033,0.793c-0.456,0.419-0.893,0.968-1.313,1.648
					c-0.419,0.68-0.669,1.806-0.747,3.38c-0.038,0.817-0.063,1.574-0.076,2.273c-0.012,0.699-0.006,1.515,0.017,2.445
					c0.023,0.932,0.051,2.067,0.083,3.404c0.033,1.339,0.076,3.055,0.127,5.15l0.395,16.06c0.05,2.038,0.091,3.725,0.124,5.062
					c0.033,1.339,0.074,2.502,0.129,3.49c0.052,0.99,0.119,1.918,0.2,2.79c0.078,0.871,0.161,1.86,0.247,2.964
					c0.084,1.105,0.709,1.642,1.873,1.613l7.419-0.182c3.491-0.086,6.122-0.223,7.894-0.412c1.77-0.189,3.043-0.525,3.817-1.011
					c0.775-0.485,1.236-1.21,1.387-2.174c0.151-0.965,0.411-2.238,0.78-3.819l0.253-0.354l2.269-0.056l-1.301,11.043l-0.677,0.883
					c-0.291,0.007-0.828,0.021-1.614,0.04c-0.786,0.018-1.688,0.041-2.706,0.066c-1.018,0.026-2.066,0.051-3.141,0.077
					c-1.078,0.027-1.994,0.05-2.75,0.068l-17.63,0.432c-0.408,0.01-1.078,0.027-2.009,0.049c-0.931,0.023-1.892,0.046-2.879,0.071
					c-0.99,0.024-1.95,0.049-2.881,0.071c-0.932,0.023-1.601,0.04-2.007,0.05l-0.177-0.083l0.223-1.577l0.428-0.361
					c0.93-0.023,1.803-0.088,2.615-0.195c0.812-0.107,1.476-0.37,1.99-0.792c0.454-0.418,0.877-1.011,1.266-1.777
					c0.388-0.766,0.654-1.85,0.794-3.251c0.047-0.408,0.079-0.889,0.095-1.443c0.016-0.553,0.013-1.236-0.006-2.052
					c-0.021-0.814-0.044-1.803-0.073-2.967c-0.028-1.163-0.065-2.619-0.107-4.364l-0.435-17.719c-0.05-2.035-0.091-3.753-0.125-5.15
					c-0.035-1.396-0.079-2.587-0.132-3.577c-0.055-0.988-0.104-1.831-0.15-2.529C581.116,296.785,581.055,296.088,580.981,295.391z"
					/>
				<path d="M702.591,304.198c0.719,0.236,1.81,0.597,3.275,1.079c1.464,0.482,2.944,0.969,4.437,1.462
					c1.492,0.491,2.832,0.933,4.022,1.324c1.188,0.392,1.92,0.633,2.197,0.725l0.168,0.883l-3.305,8.916l-2.073-0.683l-0.22-0.445
					c0.312-1.324,0.493-2.382,0.54-3.174c0.045-0.792-0.331-1.505-1.133-2.142c-0.801-0.636-2.115-1.256-3.939-1.856
					c-1.823-0.6-4.395-1.447-7.711-2.54l-7.961-2.622l-1.218,3.139c-0.343,0.855-0.627,1.579-0.853,2.169
					c-0.227,0.592-0.496,1.32-0.811,2.185c-0.317,0.864-0.675,1.91-1.079,3.139c-0.406,1.228-1.381,4.19-2.927,8.884
					c1.658,0.546,3.317,1.093,4.976,1.638c1.658,0.547,3.163,1.043,4.519,1.49c1.355,0.446,2.534,0.726,3.538,0.839
					c1.004,0.113,1.737,0.029,2.197-0.253c0.59-0.301,1.124-0.621,1.603-0.96c0.48-0.339,0.857-0.928,1.134-1.767l0.549-0.272
					l1.464,0.301l0.278,0.272c-0.53,1.233-0.989,2.303-1.38,3.214c-0.392,0.911-0.788,1.971-1.188,3.184
					c-0.436,1.324-0.799,2.565-1.088,3.722c-0.29,1.158-0.598,2.417-0.922,3.776l-0.386,0.057l-1.439-0.658l-0.25-0.358
					c0.296-0.898,0.403-1.781,0.32-2.648c-0.082-0.867-0.261-1.627-0.536-2.278c-0.222-0.446-0.775-0.909-1.658-1.386
					c-0.885-0.479-1.99-0.936-3.317-1.373c-1.328-0.437-2.82-0.928-4.479-1.475c-1.658-0.546-3.345-1.102-5.058-1.666l-2.638,8.013
					c-0.653,1.982-1.184,3.594-1.592,4.832c-0.408,1.239-0.759,2.345-1.047,3.318c-0.29,0.973-0.539,1.87-0.747,2.686
					c-0.208,0.816-0.429,1.766-0.663,2.849c-0.346,1.05,0.033,1.756,1.14,2.122l7.049,2.322c3.317,1.093,5.951,1.884,7.905,2.374
					c1.952,0.491,3.498,0.678,4.639,0.563c1.141-0.113,2.069-0.559,2.784-1.335c0.715-0.776,1.512-1.846,2.39-3.211l0.441-0.223
					l2.157,0.71l-4.937,9.964l-0.934,0.604c-0.278-0.091-0.912-0.301-1.907-0.629c-0.995-0.328-2.115-0.697-3.359-1.106
					c-1.244-0.409-2.487-0.82-3.731-1.229c-1.244-0.409-2.227-0.733-2.944-0.97l-16.752-5.518c-0.387-0.128-1.023-0.337-1.906-0.629
					c-0.885-0.291-1.798-0.592-2.737-0.901c-0.94-0.309-1.853-0.61-2.737-0.901c-0.884-0.291-1.521-0.501-1.907-0.629l-0.138-0.138
					l0.74-1.41l0.524-0.195c0.883,0.291,1.726,0.522,2.529,0.695c0.8,0.172,1.514,0.146,2.139-0.077
					c0.569-0.241,1.162-0.597,1.777-1.069c0.615-0.471,1.231-1.463,1.853-2.974c0.128-0.386,0.291-0.838,0.493-1.354
					c0.2-0.516,0.441-1.156,0.725-1.922c0.281-0.765,0.605-1.699,0.97-2.805c0.364-1.106,0.82-2.488,1.365-4.146l5.546-16.834
					c0.637-1.934,1.174-3.565,1.612-4.893c0.437-1.326,0.81-2.459,1.119-3.399c0.309-0.939,0.559-1.747,0.75-2.419
					c0.19-0.672,0.368-1.35,0.532-2.031c0.38-1.53,0.468-2.68,0.263-3.452c-0.206-0.772-0.465-1.425-0.779-1.959
					c-0.37-0.549-0.929-0.995-1.676-1.332c-0.747-0.339-1.563-0.653-2.446-0.944l-0.306-0.468l0.242-1.575l0.194-0.028
					c0.386,0.127,1.022,0.336,1.907,0.627c0.883,0.291,1.837,0.605,2.861,0.943c1.022,0.337,2.017,0.665,2.985,0.983
					c0.966,0.319,1.754,0.578,2.363,0.78L702.591,304.198z"/>
				<path d="M825.334,379.969l-1.123,1.064l-0.554-0.018c-0.714-0.6-1.421-1.138-2.123-1.614c-0.703-0.476-1.364-0.708-1.982-0.696
					c-0.62,0.013-1.28,0.143-1.982,0.391c-0.703,0.246-1.622,0.956-2.76,2.13c-0.57,0.586-1.091,1.139-1.563,1.655
					c-0.471,0.515-1.018,1.122-1.641,1.816c-0.622,0.694-1.363,1.555-2.225,2.581c-0.862,1.026-1.968,2.341-3.315,3.945
					l-9.895,11.772c-2.099,2.497-3.811,4.558-5.138,6.182c-1.328,1.625-2.458,3.015-3.391,4.171
					c-0.933,1.155-1.741,2.207-2.424,3.155c-0.682,0.949-1.43,1.995-2.239,3.14l-0.704-0.249l-4.144-3.483l0.009-1.367l6.256-55.753
					c-0.374,0.446-0.76,0.883-1.156,1.309c-0.398,0.426-0.867,0.963-1.41,1.609c-0.543,0.647-1.171,1.393-1.882,2.239
					c-0.711,0.848-1.592,1.895-2.639,3.141l-10.336,12.298c-0.449,0.535-1.039,1.236-1.77,2.105c-0.73,0.87-1.477,1.781-2.241,2.736
					c-0.765,0.954-1.501,1.875-2.208,2.763c-0.709,0.888-1.264,1.617-1.669,2.19c-0.848,1.189-1.362,2.184-1.538,2.984
					c-0.18,0.8-0.178,1.544,0.007,2.23c0.132,0.566,0.448,1.138,0.954,1.714c0.503,0.576,1.201,1.239,2.094,1.988l0.11,0.548
					l-0.811,1.372l-0.19-0.045c-0.312-0.263-0.792-0.665-1.437-1.208c-0.646-0.543-1.326-1.115-2.038-1.712
					c-0.714-0.6-1.393-1.172-2.039-1.714c-0.647-0.543-1.125-0.946-1.437-1.208l-1.269-1.067c-0.313-0.262-0.826-0.693-1.537-1.292
					c-0.714-0.599-1.449-1.217-2.206-1.853c-0.759-0.638-1.493-1.256-2.206-1.854c-0.714-0.601-1.227-1.03-1.537-1.292l-0.078-0.179
					l1.212-1.035l0.559,0.015c0.801,0.674,1.509,1.211,2.123,1.613c0.613,0.401,1.273,0.633,1.981,0.696
					c0.499,0.038,1.133-0.057,1.898-0.289c0.765-0.233,1.758-0.939,2.978-2.119c0.307-0.275,0.649-0.615,1.028-1.02
					c0.379-0.406,0.829-0.92,1.354-1.544c0.525-0.624,1.162-1.383,1.911-2.274c0.75-0.892,1.687-2.006,2.811-3.343l11.412-13.579
					c1.312-1.56,2.418-2.877,3.317-3.946c0.899-1.069,1.668-1.984,2.305-2.743c0.638-0.758,1.169-1.414,1.597-1.967
					c0.426-0.554,0.843-1.118,1.25-1.691c0.697-1.011,1.162-1.971,1.393-2.879c0.231-0.909,0.278-1.687,0.14-2.337
					c-0.139-0.649-0.481-1.259-1.026-1.832c-0.546-0.573-1.197-1.178-1.955-1.814l-0.113-0.543l0.788-1.346l0.358-0.155
					c0.312,0.262,0.753,0.665,1.323,1.208c0.57,0.543,1.151,1.094,1.745,1.655c0.592,0.561,1.174,1.113,1.744,1.656
					c0.57,0.543,1.011,0.944,1.324,1.207l2.339,1.966c0.356,0.3,0.857,0.72,1.504,1.264c0.646,0.542,1.225,0.916,1.739,1.119
					l0.166,0.481c-0.348,0.773-0.7,1.94-1.061,3.499c-0.36,1.56-0.712,3.336-1.056,5.329c-0.345,1.991-0.695,4.129-1.055,6.412
					c-0.361,2.283-0.689,4.553-0.99,6.809c-1.184,8.283-1.957,15.197-2.323,20.744c-0.367,5.547-0.624,9.132-0.771,10.756
					c0.262-0.312,0.515-0.593,0.764-0.842c0.246-0.249,0.52-0.551,0.821-0.909c0.3-0.357,0.675-0.803,1.124-1.339
					c0.449-0.535,1.05-1.249,1.8-2.14l11.413-13.581c1.312-1.56,2.418-2.876,3.317-3.947c0.9-1.071,1.658-1.995,2.273-2.772
					c0.614-0.777,1.135-1.442,1.563-1.995c0.426-0.554,0.844-1.118,1.25-1.691c0.96-1.324,1.49-2.362,1.591-3.115
					c0.101-0.753,0.104-1.435,0.01-2.046c-0.139-0.649-0.503-1.28-1.093-1.889c-0.59-0.61-1.241-1.214-1.954-1.814l-0.047-0.486
					l0.789-1.346l0.358-0.155c0.312,0.261,0.742,0.654,1.29,1.179c0.547,0.524,1.107,1.057,1.677,1.599
					c0.57,0.543,1.129,1.076,1.677,1.6c0.547,0.524,0.978,0.917,1.291,1.179l3.141,2.641c0.311,0.261,0.756,0.636,1.336,1.123
					c0.579,0.486,1.199,0.97,1.861,1.449c0.66,0.48,1.3,0.941,1.917,1.384c0.615,0.442,1.099,0.772,1.448,0.989L825.334,379.969z"/>
			</g>
			<g>
				<path d="M444.733,781.815l-1.419,0.725l-0.488-0.073c-0.554-0.749-1.117-1.436-1.689-2.062
					c-0.572-0.627-1.179-1.028-1.818-1.207c-0.605-0.131-1.286-0.17-2.043-0.117c-0.759,0.055-1.827,0.52-3.208,1.397
					c-0.691,0.44-1.326,0.855-1.905,1.249c-0.581,0.392-1.253,0.854-2.02,1.386c-0.767,0.531-1.689,1.196-2.766,1.993
					c-1.077,0.798-2.459,1.821-4.145,3.069l-12.928,9.57c-1.686,1.249-3.103,2.298-4.251,3.147c-1.147,0.85-2.128,1.557-2.942,2.123
					c-0.814,0.565-1.513,1.066-2.099,1.499c-0.585,0.432-1.135,0.841-1.65,1.222c-1.875,1.389-3.881,2.547-6.02,3.479
					c-2.138,0.931-4.229,1.555-6.278,1.877c-2.046,0.32-3.985,0.27-5.818-0.146c-1.831-0.42-3.425-1.25-4.78-2.491
					c-0.372-0.306-0.73-0.692-1.076-1.158c-0.347-0.469-0.659-0.889-0.936-1.263l-0.21-0.714l1.409-1.261l0.594-0.005
					c0.449,0.607,0.848,1.145,1.195,1.614c0.345,0.466,0.786,0.865,1.319,1.195c0.744,0.318,1.563,0.543,2.46,0.677
					c2.28,0.339,5.28-0.704,8.995-3.128c3.715-2.425,8.711-5.961,14.989-10.608l14.263-10.559c1.639-1.214,3.021-2.236,4.146-3.069
					c1.124-0.832,2.076-1.555,2.854-2.167c0.778-0.614,1.441-1.14,1.987-1.58c0.543-0.44,1.08-0.89,1.609-1.353
					c1.195-1.032,1.94-1.909,2.238-2.635c0.296-0.727,0.469-1.398,0.52-2.015c0.017-0.664-0.183-1.35-0.597-2.056
					c-0.415-0.708-0.9-1.436-1.453-2.184l0.021-0.558l1.107-1.146l0.174,0.089c0.242,0.327,0.641,0.865,1.195,1.614
					c0.553,0.748,1.125,1.519,1.714,2.315c0.588,0.795,1.161,1.566,1.715,2.315c0.553,0.748,0.951,1.286,1.195,1.614l0.987,1.334
					c0.242,0.326,0.641,0.865,1.195,1.614c0.553,0.748,1.125,1.52,1.714,2.316c0.59,0.795,1.161,1.566,1.715,2.315
					c0.553,0.748,0.951,1.286,1.195,1.614L444.733,781.815z"/>
				<path d="M500.94,827.76l-7.832,41.411c-0.387,1.799-0.688,3.312-0.905,4.536c-0.216,1.225-0.393,2.269-0.532,3.133
					c-0.14,0.865-0.249,1.594-0.329,2.189c-0.083,0.594-0.15,1.112-0.207,1.552c-0.189,1.579-0.195,2.876-0.018,3.893
					c0.177,1.016,0.47,1.866,0.879,2.547c0.408,0.682,0.91,1.231,1.508,1.652c0.597,0.42,1.22,0.822,1.873,1.207l0.197,0.523
					l-0.574,1.487l-0.328,0.212c-0.351-0.208-0.855-0.557-1.512-1.045c-0.659-0.491-1.362-0.957-2.113-1.401
					c-0.753-0.445-1.466-0.866-2.142-1.266c-0.677-0.4-1.191-0.704-1.542-0.911l-2.48-1.465c-0.352-0.207-0.928-0.548-1.73-1.021
					c-0.802-0.474-1.642-0.969-2.518-1.487c-0.878-0.519-1.717-1.015-2.519-1.488c-0.802-0.474-1.379-0.814-1.728-1.021
					l-0.106-0.164l1.024-1.219l0.479-0.123c1.453,0.857,2.676,1.362,3.671,1.509c0.994,0.147,1.921-0.504,2.78-1.959
					c0.681-1.152,1.246-2.998,1.699-5.536c0.449-2.538,1.033-5.727,1.746-9.565l0.854-4.363l-16.839-9.948l-3.409,2.854
					c-3.018,2.476-5.53,4.525-7.534,6.146c-2.007,1.621-3.35,3.007-4.029,4.159c-0.86,1.454-0.984,2.58-0.374,3.38
					c0.608,0.799,1.639,1.627,3.094,2.486l0.198,0.523l-0.574,1.487l-0.195-0.013c-0.351-0.208-0.902-0.534-1.654-0.977
					c-0.751-0.445-1.541-0.911-2.368-1.4c-0.827-0.488-1.616-0.955-2.368-1.398c-0.751-0.445-1.303-0.77-1.654-0.977l-1.427-0.844
					c-0.352-0.207-0.878-0.518-1.579-0.932c-0.703-0.415-1.429-0.844-2.18-1.289c-0.752-0.443-1.488-0.828-2.209-1.152
					c-0.721-0.325-1.256-0.591-1.608-0.798l0.102-0.345l0.95-1.264l0.554-0.079c0.652,0.385,1.292,0.731,1.923,1.035
					c0.631,0.306,1.342,0.473,2.138,0.502c0.793,0.029,1.677-0.124,2.654-0.46c0.976-0.336,2.134-0.953,3.476-1.85
					c0.298-0.162,0.605-0.368,0.924-0.62c0.317-0.252,0.805-0.622,1.466-1.111c0.659-0.488,1.521-1.145,2.585-1.972
					c1.061-0.826,2.442-1.904,4.14-3.233c1.698-1.329,3.776-2.957,6.233-4.887c2.458-1.928,5.439-4.257,8.944-6.987
					c1.687-1.369,3.392-2.711,5.116-4.026c1.722-1.314,3.329-2.546,4.819-3.694c1.49-1.147,2.811-2.157,3.97-3.029
					c1.157-0.871,1.998-1.523,2.525-1.956l5.767,0.364L500.94,827.76z M474.884,847.149l14.358,8.481l4.27-23.537L474.884,847.149z"
					/>
				<path d="M634.043,912.807c-0.408-0.007-1.077-0.018-2.007-0.033c-0.932-0.015-1.892-0.03-2.881-0.046
					c-0.99-0.016-1.951-0.032-2.881-0.047c-0.932-0.015-1.602-0.026-2.009-0.032l-1.659-0.027c-0.407-0.007-1.077-0.018-2.007-0.033
					c-0.932-0.016-1.892-0.031-2.881-0.048c-0.99-0.016-1.951-0.03-2.881-0.046c-0.932-0.015-1.602-0.026-2.008-0.033l-0.261-0.091
					l0.287-1.566l0.356-0.344c0.929,0.015,1.819-0.015,2.664-0.088c0.845-0.074,1.503-0.311,1.977-0.71
					c0.413-0.401,0.815-0.918,1.203-1.553c0.388-0.633,0.597-1.765,0.624-3.395c0.006-0.407,0.013-0.887,0.023-1.441
					c0.009-0.553,0.005-1.236-0.011-2.052c-0.017-0.815-0.044-1.804-0.083-2.97c-0.039-1.164-0.104-2.621-0.191-4.369
					c-0.367-6.118-0.65-10.998-0.854-14.641c-0.202-3.641-0.375-6.481-0.516-8.521c-0.141-2.039-0.248-3.497-0.322-4.371
					c-0.074-0.875-0.135-1.603-0.184-2.186c-0.424,1.041-1.09,2.646-1.999,4.815c-0.909,2.168-1.953,4.654-3.133,7.458
					c-1.181,2.805-2.438,5.798-3.77,8.977c-1.333,3.18-2.651,6.331-3.951,9.453c-1.303,3.123-2.543,6.072-3.724,8.847
					c-1.18,2.775-2.195,5.146-3.042,7.111l-4.102-0.067l-16.7-47.073c-0.068,0.581-0.136,1.191-0.205,1.829
					c-0.069,0.641-0.14,1.411-0.212,2.311c-0.073,0.903-0.163,1.949-0.269,3.14c-0.107,1.191-0.233,2.659-0.378,4.403l-1.482,16.043
					c-0.207,1.976-0.351,3.604-0.429,4.883c-0.079,1.28-0.156,2.385-0.228,3.314c-0.074,0.931-0.116,1.716-0.125,2.356
					c-0.011,0.641-0.022,1.309-0.033,2.007c-0.027,1.63,0.144,2.769,0.513,3.414c0.367,0.647,0.78,1.178,1.24,1.592
					c0.458,0.415,0.993,0.671,1.603,0.769c0.609,0.096,1.38,0.152,2.311,0.168l0.344,0.354l0.237,1.576l-0.18,0.346
					c-0.408-0.006-1.004-0.032-1.789-0.073c-0.786-0.043-1.586-0.084-2.4-0.126c-0.815-0.044-1.614-0.085-2.399-0.127
					c-0.784-0.043-1.382-0.066-1.788-0.073l-1.659-0.027c-0.408-0.006-1.062-0.017-1.965-0.032c-0.902-0.015-1.862-0.03-2.881-0.046
					c-1.018-0.017-1.979-0.032-2.881-0.046c-0.902-0.015-1.558-0.026-1.963-0.033l-0.174-0.09l0.287-1.566l0.53-0.341
					c0.873,0.015,1.716-0.016,2.534-0.09c0.816-0.074,1.519-0.309,2.107-0.708c0.471-0.4,0.961-0.915,1.466-1.548
					c0.504-0.632,0.887-1.76,1.146-3.386c0.063-0.406,0.13-0.885,0.197-1.438c0.067-0.551,0.151-1.234,0.252-2.047
					c0.1-0.812,0.217-1.8,0.353-2.963c0.135-1.161,0.274-2.615,0.42-4.359l1.509-17.7c0.208-2.034,0.367-3.749,0.476-5.145
					c0.111-1.395,0.188-2.586,0.233-3.576c0.045-0.988,0.088-1.832,0.129-2.53c0.04-0.698,0.066-1.396,0.078-2.095
					c0.026-1.629-0.203-2.782-0.687-3.459c-0.484-0.677-0.956-1.195-1.415-1.552c-0.518-0.415-1.183-0.674-1.996-0.775
					c-0.814-0.1-1.686-0.158-2.616-0.173l-0.431-0.357l-0.236-1.575l0.177-0.085c0.407,0.007,1.076,0.018,2.007,0.033
					c0.931,0.016,1.89,0.03,2.881,0.048c0.989,0.016,1.95,0.03,2.881,0.046c0.931,0.015,1.601,0.026,2.008,0.033l3.055,0.049
					c0.465,0.007,1.121,0.018,1.965,0.032c0.843,0.015,1.529-0.004,2.052-0.054l0.432,0.269c0.045,0.758,0.247,1.765,0.607,3.022
					c0.357,1.258,0.799,2.676,1.328,4.257c0.527,1.58,1.096,3.263,1.708,5.049c0.612,1.786,1.223,3.555,1.836,5.312l5.674,16.246
					c0.944,2.81,1.808,5.196,2.591,7.158c0.783,1.965,1.482,3.706,2.099,5.23c0.179-0.287,0.691-1.4,1.538-3.337
					c0.846-1.935,1.889-4.335,3.129-7.196c1.239-2.861,2.557-5.998,3.951-9.411c1.393-3.412,2.73-6.752,4.005-10.021
					c1.275-3.267,2.372-6.291,3.29-9.071c0.918-2.78,1.507-4.982,1.766-6.608l0.442-0.342c0.465,0.038,0.96,0.067,1.483,0.09
					c0.524,0.023,1.017,0.038,1.484,0.045l3.142,0.051c0.407,0.006,1.077,0.017,2.007,0.033c0.931,0.015,1.892,0.03,2.882,0.046
					c0.988,0.016,1.949,0.032,2.881,0.046c0.929,0.016,1.599,0.027,2.007,0.033l0.173,0.09l-0.287,1.568l-0.442,0.342
					c-0.931-0.016-1.82,0.013-2.664,0.088c-0.847,0.073-1.504,0.311-1.977,0.71c-0.471,0.341-0.961,0.857-1.465,1.548
					c-0.507,0.689-0.772,1.821-0.798,3.392c-0.013,0.816-0.011,1.571,0.007,2.27c0.017,0.699,0.033,1.515,0.047,2.446
					c0.013,0.932,0.054,2.068,0.119,3.407c0.066,1.341,0.168,3.06,0.309,5.157l0.787,16.079c0.141,2.099,0.244,3.803,0.311,5.113
					c0.066,1.311,0.135,2.403,0.208,3.278c0.073,0.875,0.149,1.619,0.225,2.23c0.078,0.613,0.168,1.269,0.274,1.969
					c0.206,1.633,0.536,2.775,0.993,3.422c0.454,0.649,0.911,1.18,1.371,1.594c0.516,0.417,1.196,0.674,2.039,0.775
					c0.842,0.101,1.728,0.159,2.66,0.174l0.431,0.357l0.236,1.575L634.043,912.807z"/>
				<path d="M697.381,829.526c0.668-0.353,1.685-0.892,3.048-1.614c1.363-0.721,2.739-1.45,4.128-2.185
					c1.389-0.736,2.636-1.396,3.743-1.982c1.105-0.586,1.786-0.946,2.044-1.083l0.754,0.49l4.139,8.562l-1.929,1.022l-0.474-0.149
					c-0.738-1.144-1.376-2.007-1.915-2.59c-0.54-0.582-1.315-0.804-2.33-0.669c-1.013,0.138-2.369,0.655-4.067,1.554
					c-1.698,0.899-4.089,2.166-7.175,3.8l-7.407,3.922l1.419,3.054c0.379,0.84,0.703,1.547,0.973,2.118
					c0.27,0.574,0.608,1.273,1.012,2.099c0.404,0.827,0.91,1.81,1.515,2.954c0.605,1.143,2.065,3.899,4.378,8.267
					c1.543-0.817,3.087-1.635,4.63-2.452c1.543-0.817,2.944-1.559,4.205-2.227c1.261-0.667,2.279-1.323,3.057-1.97
					c0.777-0.646,1.224-1.233,1.341-1.76c0.19-0.633,0.33-1.24,0.418-1.821c0.088-0.58-0.074-1.261-0.488-2.043l0.185-0.583
					l1.23-0.846l0.39-0.012c0.521,1.235,0.976,2.308,1.36,3.223c0.385,0.914,0.876,1.933,1.473,3.061
					c0.653,1.233,1.296,2.354,1.931,3.364c0.633,1.012,1.328,2.106,2.083,3.283l-0.227,0.318l-1.47,0.581l-0.431-0.068
					c-0.443-0.836-1.005-1.525-1.687-2.066c-0.682-0.542-1.354-0.939-2.015-1.192c-0.474-0.15-1.191-0.072-2.147,0.235
					c-0.959,0.307-2.054,0.786-3.289,1.44c-1.234,0.654-2.624,1.39-4.166,2.207c-1.543,0.816-3.113,1.648-4.708,2.492l3.949,7.456
					c0.977,1.844,1.771,3.344,2.381,4.496c0.61,1.154,1.164,2.172,1.666,3.055c0.501,0.883,0.973,1.683,1.419,2.398
					c0.443,0.716,0.976,1.534,1.594,2.452c0.518,0.978,1.29,1.194,2.319,0.649l6.559-3.474c3.085-1.634,5.482-2.985,7.189-4.054
					c1.706-1.068,2.913-2.052,3.621-2.955c0.709-0.901,1.031-1.879,0.967-2.933c-0.063-1.052-0.284-2.369-0.659-3.949l0.145-0.471
					l2.006-1.062l3.763,10.463l-0.212,1.093c-0.257,0.136-0.848,0.449-1.773,0.939c-0.927,0.491-1.968,1.043-3.125,1.655
					c-1.157,0.613-2.314,1.225-3.473,1.838c-1.157,0.614-2.071,1.097-2.738,1.451l-15.586,8.253c-0.36,0.191-0.953,0.504-1.775,0.94
					c-0.823,0.436-1.672,0.885-2.546,1.348c-0.876,0.463-1.725,0.912-2.547,1.348c-0.823,0.436-1.415,0.749-1.775,0.939
					l-0.195,0.005l-0.504-1.512l0.223-0.513c0.822-0.435,1.573-0.882,2.253-1.341c0.678-0.458,1.155-0.99,1.428-1.596
					c0.22-0.577,0.374-1.251,0.46-2.022c0.086-0.77-0.202-1.903-0.861-3.397c-0.19-0.359-0.403-0.791-0.636-1.294
					c-0.233-0.502-0.527-1.119-0.883-1.855c-0.356-0.732-0.805-1.614-1.351-2.643c-0.545-1.028-1.225-2.314-2.043-3.857
					l-8.295-15.664c-0.952-1.799-1.756-3.317-2.41-4.552c-0.653-1.234-1.212-2.289-1.675-3.163
					c-0.463-0.875-0.871-1.614-1.224-2.217c-0.353-0.604-0.719-1.201-1.096-1.79c-0.839-1.334-1.607-2.195-2.306-2.582
					c-0.698-0.387-1.35-0.652-1.951-0.794c-0.654-0.115-1.362-0.021-2.122,0.284c-0.763,0.305-1.554,0.675-2.376,1.11l-0.549-0.105
					l-0.967-1.266l0.113-0.159c0.359-0.19,0.951-0.503,1.775-0.939c0.822-0.436,1.71-0.905,2.663-1.409
					c0.951-0.504,1.877-0.995,2.777-1.471c0.899-0.476,1.632-0.865,2.198-1.164L697.381,829.526z"/>
				<path d="M762.43,793.433c1.292,0.993,2.543,1.588,3.752,1.782c1.208,0.196,2.499,0.068,3.872-0.381
					c1.374-0.448,2.884-1.197,4.532-2.244c1.648-1.045,3.535-2.329,5.66-3.853c1.866-1.281,3.784-2.487,5.753-3.616
					c1.97-1.129,4.002-1.933,6.097-2.415c2.096-0.481,4.217-0.519,6.367-0.117c2.15,0.406,4.331,1.458,6.546,3.161
					c2.353,1.809,3.995,3.805,4.923,5.987c0.928,2.184,1.315,4.426,1.159,6.728c-0.155,2.303-0.773,4.637-1.855,6.997
					c-1.083,2.362-2.475,4.652-4.178,6.866c-2.2,2.861-4.526,5.219-6.982,7.077c-2.454,1.857-4.894,3.359-7.318,4.505l-1.112-0.415
					l-6.502-6.87l1.33-1.731l0.681-0.027c2.993,1.934,5.926,2.391,8.803,1.372c2.876-1.02,5.661-3.283,8.358-6.791
					c2.767-3.599,4.032-6.939,3.795-10.022c-0.236-3.08-1.671-5.633-4.301-7.656c-1.615-1.241-3.23-1.932-4.848-2.074
					c-1.615-0.141-3.24,0.061-4.871,0.605c-1.631,0.547-3.257,1.351-4.883,2.413c-1.625,1.065-3.258,2.14-4.901,3.225
					c-2.018,1.385-3.997,2.598-5.937,3.639c-1.939,1.043-3.847,1.78-5.72,2.211c-1.873,0.432-3.737,0.47-5.59,0.108
					c-1.853-0.359-3.702-1.248-5.547-2.667c-2.169-1.667-3.71-3.458-4.625-5.373c-0.914-1.914-1.331-3.903-1.247-5.97
					c0.083-2.065,0.599-4.146,1.549-6.242c0.95-2.095,2.224-4.181,3.82-6.258c1.916-2.492,3.957-4.667,6.121-6.529
					c2.164-1.86,4.101-3.234,5.811-4.122l0.974,0.309l5.415,5.704l-1.49,1.939l-0.613,0.079c-1.27-0.828-2.541-1.183-3.811-1.059
					c-1.27,0.125-2.477,0.502-3.62,1.128c-1.142,0.626-2.2,1.43-3.172,2.407c-0.972,0.978-1.777,1.882-2.415,2.713
					c-2.307,3-3.458,5.859-3.456,8.577C758.76,789.254,759.985,791.552,762.43,793.433z"/>
			</g>
		</g>
		<g>
			<g>
				<g>
					<path d="M879.758,603.609c0,0-13.619-11.197-13.619-18.341c0-3.683,2.986-6.67,6.67-6.67c2.866,0,5.308,1.807,6.253,4.343
						c0.944-2.535,3.387-4.343,6.253-4.343c3.683,0,6.661,2.986,6.67,6.67C892,592.412,879.758,603.609,879.758,603.609z"/>
				</g>
			</g>
			<g>
				<g>
					<path d="M321.636,603.609c0,0-13.619-11.197-13.619-18.341c0-3.683,2.986-6.67,6.67-6.67c2.866,0,5.308,1.807,6.253,4.343
						c0.944-2.535,3.387-4.343,6.253-4.343c3.683,0,6.661,2.986,6.67,6.67C333.879,592.412,321.636,603.609,321.636,603.609z"/>
				</g>
			</g>
			<g>



				<path style="fill:none;" d="M689.819,527.274c0.599,2.006,1.198,4.013,1.764,6.024c2.416,8.568,4.438,17.859,2.893,27.746
					c-0.128,0.817-0.304,1.758-0.511,2.744c9.052-18.177,5.753-42.517,5.712-42.803c-0.104-0.73,0.404-1.407,1.135-1.511
					c0.714-0.1,1.403,0.402,1.51,1.133c0.178,1.249,3.686,27.086-6.825,46.051c20.424-17.982,25-37.712,25.048-37.932
					c0.159-0.721,0.861-1.167,1.59-1.018c0.721,0.159,1.176,0.87,1.018,1.589c-0.173,0.791-3.541,15.302-17.446,30.975
					c15.445-11.21,36.566-28.542,42.842-44.645c2.479-6.358,4.241-12.526-1.348-18.095c-2.415-2.409-6.246-2.673-9.029-2.118
					c-3.406,0.679-6.547,2.492-9.583,4.246c-0.422,0.245-0.95,0.239-1.367-0.019c-0.417-0.256-0.66-0.721-0.634-1.21
					c0.322-5.885-4.516-11.76-10.353-12.573c-5.816-0.753-12.097,3.523-13.391,9.274c-0.115,0.507-0.514,0.902-1.022,1.011
					c-0.505,0.112-1.033-0.086-1.349-0.502c-1.512-2.01-2.908-3.775-4.665-5.018c-1.871-1.33-4.026-1.83-5.755-1.354
					c-1.627,0.452-3.128,1.844-4.015,3.728c-0.94,1.997-1.165,4.316-1.255,6.113C684.3,508.793,687.105,518.189,689.819,527.274z"/>
				<path d="M784.204,532.827c-0.606-4.25-2.51-7.838-5.359-10.104c-2.886-2.294-6.835-3.056-10.432-2.293
					c0.385-0.97,0.639-2.015,0.75-3.105c0.318-3.158-0.634-6.187-2.612-8.31c-2.072-2.224-5.194-3.275-8.354-2.81
					c-1.759,0.259-3.374,0.96-4.797,2.032c0.53-4.255-0.293-8.591-4.312-12.596c-2.685-2.672-6.959-3.738-11.437-2.846
					c-3.06,0.611-5.892,2.012-8.472,3.454c-0.777-6.425-6.092-12.134-12.576-13.035c-6.375-0.901-12.95,3.019-15.535,8.838
					c-1.126-1.378-2.293-2.604-3.714-3.608c-2.557-1.813-5.481-2.449-8.011-1.748c-2.402,0.666-4.487,2.548-5.718,5.164
					c-0.266,0.564-0.475,1.142-0.654,1.721c-3.84-3.38-9.947-4.094-14.35-1.387c-3.945,2.427-6.058,7.317-5.527,11.869
					c-3.117-1.136-6.961-0.593-9.743,1.685c-3.345,2.738-4.982,7.467-4.271,12.338c0.551,3.788,2.46,7.667,5.67,11.526
					c3.944,4.743,8.896,8.516,13.685,12.164l1.361,1.038c5.039,3.855,10.26,8.062,13.854,13.361
					c3.766,5.55,5.156,11.696,3.913,16.991c-0.019,0.054-0.028,0.12-0.036,0.175c-0.016,0.064-0.024,0.13-0.04,0.193
					c-7.674,9.057-16.92,17.055-28.04,24.219c1.751-4.433,2.997-9.62,3.548-15.06c5.797-3.876,8.275-11.755,7.681-17.765
					c-0.072-0.731-0.714-1.259-1.461-1.197c-0.734,0.073-1.269,0.726-1.197,1.461c0.451,4.544-1.09,10.296-4.755,13.876
					c0.35-8.099-0.896-16.446-4.263-23.41c1.106-1.027,1.818-2.476,1.852-4.101c0.066-3.18-2.48-5.825-5.646-5.884
					c-1.541-0.032-3,0.537-4.112,1.605c-1.111,1.066-1.741,2.5-1.774,4.04c-0.063,3.021,2.22,5.556,5.178,5.857
					c0.154,0.016,0.309,0.025,0.468,0.029c0.592,0.012,1.154-0.092,1.695-0.248c6.417,13.404,4.482,32.24-1.283,43.333
					c-12.111,7.287-26.318,13.691-43.057,19.434c-0.905,0.311-1.832,0.58-2.74,0.883c12.231-19.966,10.259-50.527,1.697-70.362
					c-0.003-0.008-0.011-0.012-0.014-0.019c-0.08-0.177-0.198-0.332-0.348-0.461c-0.043-0.036-0.095-0.054-0.142-0.085
					c-0.09-0.06-0.172-0.129-0.279-0.166c-0.033-0.012-0.065-0.005-0.098-0.014c-0.026-0.007-0.046-0.029-0.073-0.035
					c-0.046-0.009-0.088,0.009-0.133,0.005c-0.142-0.016-0.276-0.013-0.411,0.016c-0.056,0.012-0.108,0.024-0.161,0.042
					c-0.143,0.05-0.268,0.123-0.386,0.218c-0.029,0.023-0.067,0.028-0.094,0.053c-0.02,0.019-0.038,0.043-0.058,0.062
					c-0.009,0.009-0.018,0.018-0.026,0.027c-8.321,7.861-13.68,20.747-14.336,34.508c-0.658,13.821,3.038,28.451,9.48,37.943
					c-11.006,3.476-22.207,6.513-33.305,9.36l-0.001,0l-0.001,0c-3.104,0.796-6.211,1.592-9.284,2.371
					c-7.998,2.027-16.096,4.084-24.19,6.297c3.545-3.635,6.653-8.247,9.139-13.624c5.188-3.208,9.488-6.945,12.919-11.182
					c0.013-0.01,0.028-0.011,0.041-0.022c0.13-0.107,13.214-10.688,24.2-6.76c0.693,0.259,1.46-0.112,1.706-0.808
					c0.249-0.694-0.114-1.459-0.808-1.706c-7.661-2.738-15.845,0.473-21.13,3.442c3.905-6.878,5.888-14.84,5.938-23.835
					c3.673-0.792,6.476-4.008,6.558-7.927c0.045-2.217-0.775-4.319-2.31-5.92c-1.534-1.599-3.595-2.504-5.821-2.553
					c-2.217-0.045-4.319,0.775-5.92,2.31c-1.599,1.536-2.506,3.602-2.552,5.819c-0.046,2.217,0.775,4.319,2.31,5.92
					c1.359,1.417,3.137,2.285,5.066,2.498c-0.116,15.621-6.136,27.538-18.351,36.279c2.32-6.208,3.706-12.833,3.988-19.145
					c2.704-0.626,4.761-3.007,4.822-5.907c0.034-1.66-0.58-3.234-1.729-4.431c-1.148-1.197-2.682-1.865-4.358-1.912
					c-1.66-0.034-3.234,0.58-4.431,1.73c-1.197,1.149-1.877,2.696-1.911,4.356c-0.034,1.66,0.58,3.234,1.729,4.431
					c0.876,0.914,1.989,1.503,3.202,1.758c-0.347,7.339-2.24,15.131-5.411,22.093c-3.291,7.242-7.722,13.029-12.818,16.76
					c-8.192,2.329-16.346,4.869-24.373,7.735c-0.103,0.024-0.199,0.055-0.294,0.104c-3.656,1.31-7.293,2.664-10.882,4.128
					c-3.199,1.305-6.316,2.697-9.384,4.136c2.334-3.154,4.165-6.901,5.389-11.236c3.503-12.419,1.258-26.585-5.86-36.971
					c-0.022-0.032-0.059-0.049-0.084-0.079c-0.061-0.076-0.132-0.138-0.21-0.199c-0.067-0.052-0.131-0.099-0.207-0.138
					c-0.035-0.018-0.059-0.049-0.096-0.064c-0.058-0.024-0.118-0.019-0.177-0.034c-0.051-0.013-0.095-0.046-0.148-0.053
					c-0.028-0.003-0.061,0.009-0.09,0.008c-0.119-0.008-0.231,0.006-0.345,0.029c-0.05,0.01-0.093,0.015-0.142,0.029
					c-0.124,0.039-0.234,0.1-0.342,0.173c-0.037,0.025-0.085,0.032-0.119,0.06c-10.604,8.892-16.993,22.461-17.09,36.298
					c-0.039,5.396,0.932,13.056,5.504,19.461c-20.868,12.013-37.685,27.219-48.52,44.162c-0.397,0.62-0.216,1.446,0.406,1.844
					c0.182,0.117,0.381,0.183,0.582,0.204c0.485,0.049,0.981-0.17,1.262-0.609c14.348-22.433,39.449-41.806,70.68-54.547
					c3.162-1.29,6.364-2.497,9.583-3.666c5.706,20.762,20.483,32.161,46.426,35.764c0.015,0.003,0.031,0.005,0.047,0.006h0h0
					l0.001,0c0.234,0.024,0.459-0.029,0.668-0.122c0.064-0.028,0.11-0.074,0.169-0.112c0.091-0.058,0.192-0.097,0.268-0.177
					c0.042-0.045,0.054-0.106,0.089-0.156c0.026-0.035,0.07-0.048,0.093-0.086c0.035-0.06,0.04-0.126,0.065-0.189
					c0.027-0.068,0.054-0.131,0.07-0.203c0.031-0.14,0.033-0.276,0.019-0.416c-0.004-0.042,0.014-0.083,0.006-0.124
					c-2.824-14.455-10.176-31.379-41.342-36.508c16.195-5.468,32.883-9.7,49.157-13.826c3.035-0.769,6.103-1.555,9.168-2.341
					c6.749-1.176,13.774-0.414,20.892,2.274c9.681,5.022,10.838,22.763,6.998,32.617c-0.106-0.007-0.206-0.036-0.313-0.039
					c-3.966-0.081-7.26,3.078-7.342,7.044c-0.077,3.768,2.772,6.931,6.459,7.306c0.193,0.02,0.387,0.031,0.585,0.036
					c3.966,0.08,7.259-3.078,7.342-7.044c0.06-2.917-1.652-5.455-4.127-6.635c3.181-8.479,3.005-21.559-2.219-29.783
					c5.195,2.961,10.072,6.863,14.239,11.431c-0.794,1.018-1.294,2.276-1.323,3.663c-0.067,3.246,2.388,5.97,5.565,6.294
					c0.166,0.017,0.334,0.027,0.504,0.032c1.655,0.034,3.224-0.58,4.419-1.725c1.194-1.146,1.872-2.689,1.905-4.344
					c0.034-1.655-0.578-3.224-1.724-4.419c-1.144-1.194-2.672-1.857-4.344-1.907c-1.062-0.022-2.053,0.251-2.937,0.705
					c-6.372-7.016-14.365-12.581-22.651-15.7c-3.649-1.385-7.283-2.281-10.879-2.712c8.19-2.19,16.365-4.547,24.443-7.146
					c0.012-0.006,0.026-0.006,0.039-0.013c2.077-0.669,4.171-1.3,6.228-2.006c5.731-1.966,11.144-4.018,16.312-6.148
					c1.088,4.772,5.98,17.986,27.138,22.098c3.483,0.676,6.681,1.146,9.623,1.446c24.079,2.454,30.71-6.511,31.011-6.941
					c0.04-0.057,0.055-0.122,0.085-0.182c0.032-0.065,0.069-0.124,0.09-0.194c0.036-0.117,0.047-0.236,0.05-0.357
					c0.001-0.039,0.018-0.074,0.016-0.114c0-0.006-0.004-0.011-0.005-0.018c-0.012-0.165-0.055-0.327-0.128-0.478
					c-0.018-0.037-0.048-0.064-0.069-0.099c-0.056-0.094-0.108-0.189-0.188-0.269c-12.925-12.927-37.338-20.907-56.913-19.615
					c5.969-2.818,11.536-5.779,16.717-8.905c0.051-0.023,0.091-0.053,0.139-0.083c3.565-2.155,6.968-4.381,10.182-6.697
					c0.003-0.002,0.007-0.003,0.01-0.005c7.879-6.047,17.44-7.607,24.076-7.849c4.666-0.185,9.445,0.152,14.069,0.481
					c1.031,0.073,2.086,0.137,3.134,0.206c0.022,0.001,0.041,0.014,0.063,0.014c3.666,0.077,9.286,1.882,12.507,5.075
					c0.01,0.01,0.015,0.023,0.025,0.032l0.001,0.001c0.472,2.045-0.675,12.351-6.14,21.036c-1.852,2.941-3.383,7.206-2.131,10.352
					c0.487,1.224,1.631,2.828,4.312,3.517c0.268,0.068,0.532,0.115,0.793,0.141c1.941,0.198,3.65-0.74,4.958-2.177
					c0.122,0.208,0.26,0.41,0.414,0.607c1.297,1.651,3.547,2.581,5.858,2.414c2.066-0.143,3.807-1.198,5.32-3.225
					c1.366-1.827,1.827-4.253,1.9-6.35c1.201,0.765,2.628,1.273,4.001,1.357c2.275,0.144,4.186-0.867,5.244-2.777
					c1.934-3.497,0.291-8.404-1.893-11.831c-2.283-3.58-10.998-13.928-21.132-15.297c-1.068-0.994-2.31-1.854-3.645-2.587
					c6.251-0.191,11.521-1.251,16.037-3.191c0.072,0.083,0.126,0.177,0.202,0.257c1.076,1.122,2.485,1.806,4.013,1.962
					c0.177,0.018,0.355,0.03,0.534,0.034c3.575,0.072,6.544-2.777,6.619-6.352c0.035-1.732-0.605-3.374-1.806-4.624
					c-1.198-1.25-2.813-1.956-4.545-1.995c-3.575-0.072-6.544,2.776-6.619,6.351c-0.014,0.697,0.109,1.37,0.306,2.018
					c-4.786,2.005-10.531,2.965-17.537,2.9c-3.526-0.03-7.125-0.284-10.605-0.531c-4.695-0.333-9.551-0.677-14.36-0.486
					c-3.904,0.143-8.776,0.76-13.779,2.358c4.393-3.881,8.426-7.967,12.095-12.301c9.144-5.073,19.475-6.756,29.279-8.038
					c5.124-0.669,10.409-0.854,15.521-1.032c3.794-0.132,7.716-0.27,11.576-0.603c11.377-0.982,19.743-3.601,26.33-8.238
					C780.779,551.315,785.469,541.702,784.204,532.827z M655.019,554.536c-1.712-0.013-3.067-1.454-3.031-3.159
					c0-0.001,0-0.001,0-0.001c0.016-0.827,0.354-1.597,0.951-2.169c0.597-0.572,1.381-0.878,2.207-0.86
					c0.085,0.001,0.17,0.007,0.253,0.015c1.585,0.162,2.813,1.521,2.778,3.142C658.143,553.21,656.725,554.571,655.019,554.536z
					 M562.042,577.66c0.03-1.504,0.645-2.906,1.731-3.947c1.085-1.042,2.512-1.598,4.016-1.566c0.156,0.003,0.311,0.012,0.465,0.028
					c1.326,0.135,2.55,0.73,3.483,1.704c1.042,1.085,1.598,2.512,1.566,4.016c-0.031,1.504-0.646,2.907-1.731,3.949
					c-1.087,1.041-2.512,1.597-4.017,1.566c-1.512-0.026-2.906-0.646-3.947-1.731C562.567,580.59,562.011,579.165,562.042,577.66z
					 M547.449,597.048c0.019-0.946,0.407-1.829,1.089-2.484c0.683-0.655,1.58-1.006,2.527-0.985
					c0.098,0.002,0.194,0.008,0.292,0.018c0.835,0.085,1.605,0.458,2.192,1.071c0.657,0.683,1.007,1.581,0.986,2.527
					c-0.041,1.954-1.663,3.511-3.617,3.471c-0.946-0.027-1.829-0.407-2.484-1.089C547.779,598.893,547.428,597.995,547.449,597.048z
					 M489.365,646.177c-1.289,4.57-3.252,8.458-5.831,11.558c-2.328,2.794-4.891,4.581-8.073,5.718
					c0.754-22.694,7.309-42.846,9.797-49.734C490.8,623.204,492.413,635.377,489.365,646.177z M481.766,615.632
					c-2.846,8.447-7.867,25.777-8.868,45.277c-2.617-5.135-3.232-10.756-3.202-14.928
					C469.775,634.806,474.22,623.832,481.766,615.632z M510.155,655.599c6.414,6.116,20.476,18.843,36.429,29.158
					C527.129,680.686,515.613,671.461,510.155,655.599z M551.101,684.446c-17.782-10.953-33.704-25.577-39.927-31.571
					C528.25,655.273,545.334,661.626,551.101,684.446z M603.377,676.461c-0.052,2.493-2.122,4.479-4.617,4.428
					c-2.474-0.045-4.48-2.121-4.428-4.617c0.052-2.493,2.122-4.479,4.617-4.428C601.42,671.878,603.429,673.967,603.377,676.461z
					 M618.888,651.794c0.097,0.002,0.193,0.008,0.289,0.018c0.832,0.085,1.597,0.456,2.181,1.066
					c0.653,0.68,1.001,1.573,0.981,2.516c-0.019,0.942-0.403,1.819-1.083,2.472c-0.68,0.652-1.574,1.001-2.516,0.981
					c-0.937-0.027-1.82-0.404-2.472-1.084c-0.653-0.68-1.001-1.573-0.981-2.516c0.019-0.942,0.404-1.82,1.084-2.472
					C617.052,652.122,617.945,651.774,618.888,651.794z M607.227,619.302c-3.821-32.791,0.785-55.805,3.01-64.375
					C617.296,574.112,618.348,601.293,607.227,619.302z M607.252,555.872c-2.324,9.635-6.128,31.387-2.92,61.514
					c-4.777-8.918-7.497-21.364-6.949-32.86C597.903,573.595,601.516,563.287,607.252,555.872z M739.992,577.592
					c0.105,0.002,0.208,0.008,0.31,0.018c1.955,0.199,3.467,1.876,3.425,3.875c-0.044,2.103-1.79,3.779-3.893,3.736
					c-1.008-0.012-1.967-0.437-2.674-1.173c-0.706-0.735-1.082-1.702-1.061-2.722C736.143,579.225,737.889,577.549,739.992,577.592z
					 M741.518,608.151c1.823,2.861,3.089,6.786,1.808,9.103c-0.561,1.012-1.482,1.485-2.739,1.405
					c-1.863-0.069-3.988-1.476-4.559-2.905c-0.26-0.652-0.974-0.989-1.646-0.777c-0.668,0.212-1.057,0.904-0.893,1.586
					c0.382,1.579,0.63,5.826-1.112,8.155c-1.05,1.406-2.088,2.072-3.366,2.161c-1.434,0.099-2.828-0.451-3.573-1.4
					c-0.571-0.728-0.701-1.598-0.385-2.587c0.222-0.694-0.154-1.438-0.844-1.671c-0.69-0.233-1.439,0.129-1.685,0.815
					c-0.676,1.891-2.497,4.501-4.686,3.933c-1.299-0.333-2.115-0.96-2.496-1.916c-0.826-2.076,0.364-5.485,1.909-7.941
					c4.186-6.651,6.06-14.109,6.492-18.978c1.722,3.337,2.214,8.079,0.822,16.702c-0.118,0.729,0.376,1.413,1.105,1.531
					c0.026,0.004,0.053,0.008,0.079,0.011c0.698,0.071,1.338-0.414,1.452-1.116c1.097-6.789,1.175-11.618,0.074-15.452
					c1.309,1.839,2.524,4.293,3.226,7.563c0.124,0.581,0.609,0.991,1.17,1.048c0.135,0.014,0.276,0.007,0.415-0.023
					c0.721-0.155,1.18-0.864,1.025-1.585c-0.924-4.306-2.643-7.398-4.433-9.591C734.954,599.568,739.923,605.65,741.518,608.151z
					 M686.04,492.998c0.887-1.884,2.388-3.276,4.015-3.728c1.729-0.475,3.884,0.025,5.755,1.354
					c1.757,1.243,3.153,3.008,4.665,5.018c0.316,0.416,0.843,0.614,1.349,0.502c0.508-0.109,0.907-0.504,1.022-1.011
					c1.294-5.751,7.574-10.026,13.391-9.274c5.837,0.812,10.675,6.687,10.353,12.573c-0.026,0.489,0.217,0.954,0.634,1.21
					c0.417,0.258,0.945,0.264,1.367,0.019c3.036-1.754,6.177-3.566,9.583-4.246c2.783-0.555,6.614-0.291,9.029,2.118
					c5.589,5.569,3.827,11.737,1.348,18.095c-6.277,16.103-27.397,33.435-42.842,44.645c13.905-15.674,17.273-30.184,17.446-30.975
					c0.158-0.719-0.297-1.43-1.018-1.589c-0.729-0.149-1.431,0.297-1.59,1.018c-0.048,0.219-4.625,19.949-25.048,37.932
					c10.511-18.965,7.003-44.802,6.825-46.051c-0.107-0.731-0.796-1.233-1.51-1.133c-0.73,0.104-1.238,0.781-1.135,1.511
					c0.041,0.287,3.341,24.626-5.712,42.803c0.207-0.987,0.383-1.927,0.511-2.744c1.545-9.887-0.477-19.178-2.893-27.746
					c-0.566-2.012-1.165-4.018-1.764-6.024c-2.714-9.085-5.519-18.48-5.034-28.163C684.875,497.314,685.099,494.995,686.04,492.998z
					 M671.418,540.695l-1.366-1.042c-4.671-3.557-9.5-7.236-13.25-11.746c-2.891-3.477-4.602-6.91-5.081-10.206
					c-0.567-3.889,0.735-7.77,3.321-9.887c2.774-2.269,7.128-2.186,9.315,0.176c0.45,0.489,1.19,0.569,1.735,0.194
					c0.547-0.374,0.735-1.093,0.443-1.688c-2.017-4.118-0.422-9.626,3.483-12.028c3.9-2.396,9.528-1.342,12.296,2.306
					c-0.094,0.776-0.163,1.528-0.197,2.201c-0.507,10.142,2.366,19.761,5.143,29.062c0.595,1.993,1.19,3.986,1.753,5.984
					c2.332,8.278,4.289,17.229,2.823,26.609c-0.057,0.367-0.122,0.759-0.195,1.166c-0.242-21.52-16.502-33.627-16.696-33.767
					c-0.589-0.43-1.428-0.3-1.863,0.295c-0.434,0.596-0.302,1.431,0.294,1.865c0.723,0.527,14.926,11.159,15.601,30.463
					c-0.785-2.031-1.806-4.042-3.118-5.977C682.039,549.047,676.629,544.683,671.418,540.695z M657.144,635.58
					c-17.98-3.494-23.196-13.568-24.693-18.559c6.606,3.895,24.95,13.554,48.014,15.904c3.815,0.389,7.76,0.575,11.8,0.504
					C687.898,636.068,677.767,639.588,657.144,635.58z M692.862,630.744c-27.82,0.691-51.09-11.351-58.83-15.887
					C652.309,611.33,678.516,618.403,692.862,630.744z M770.717,555.137c-6.185,4.354-14.135,6.82-25.021,7.761
					c-3.791,0.327-7.68,0.463-11.439,0.595c-5.175,0.181-10.525,0.367-15.775,1.052c-6.287,0.822-13.182,1.888-19.876,3.995
					c0.49-0.335,0.994-0.682,1.514-1.041c20.85-11.915,43.282-11.526,43.528-11.52c0.737,0.019,1.35-0.565,1.368-1.301
					c0.019-0.739-0.538-1.358-1.301-1.369c-0.827-0.021-15.333-0.279-32.046,5.876c15.079-11.35,33.443-27.382,39.369-42.586
					c0.302-0.773,0.596-1.562,0.874-2.359c1.518-3.065,3.885-4.982,6.674-5.392c2.292-0.339,4.537,0.409,6.01,1.987
					c1.456,1.563,2.151,3.83,1.91,6.223c-0.223,2.2-1.2,4.139-2.706,5.4c-0.161,0.119-0.321,0.241-0.477,0.368
					c-0.558,0.456-0.654,1.272-0.217,1.844c0.441,0.572,1.251,0.694,1.837,0.276c0.171-0.121,0.336-0.249,0.498-0.38
					c3.402-2.441,8.453-2.366,11.741,0.247c2.313,1.839,3.869,4.819,4.377,8.392C782.685,541.095,778.429,549.705,770.717,555.137z"
					/>
			</g>
		</g>
	</g>
</g>
</svg>
